<?xml version="1.0" encoding="utf-8"?>
<!-- Generator: Adobe Illustrator 25.2.3, SVG Export Plug-In . SVG Version: 6.00 Build 0)  -->
<svg version="1.1" id="Layer_1" xmlns="http://www.w3.org/2000/svg" xmlns:xlink="http://www.w3.org/1999/xlink" x="0px" y="0px"
	 viewBox="0 0 410 273" style="enable-background:new 0 0 410 273;" xml:space="preserve">
<style type="text/css">
	.st0{fill:#FBB040;}
	.st1{fill:#BE1E2D;}
</style>
<g>
	<path d="M270.9,178.7"/>
	<path class="st0" d="M43.3,106.4c-3-4.4-6.5-7.9-10.4-10.4c-4.3-2.7-8.8-4.1-13.5-4.1c-1.7,0-3,0.1-4.2,0.7
		c-1.4,0.8-2.2,2.3-2.4,4.5c-0.6,6.4-0.7,21.6-0.3,37.8c0.4,17.9,1.3,32.1,2.4,37.9c1.1,5.9,4.6,6.4,7.8,6.4c2.1,0,5-0.9,8-2.5
		c2.4-1.3,6.1-3.7,9.8-7.6c5.5-5.9,12-16.4,12-33c0-5-0.8-10.4-2.4-15.5C48.5,115.4,46.2,110.5,43.3,106.4 M17,172.4
		c-1.1-5.7-2-19.7-2.4-37.6c-0.4-16.2-0.3-31.3,0.3-37.6c0.2-1.9,0.8-2.5,1.3-2.8C17,94,18.1,94,19.4,94c4.3,0,8.4,1.3,12.3,3.8
		c3.6,2.3,6.9,5.6,9.8,9.8c2.7,4,5,8.6,6.5,13.5c1.5,4.9,2.3,10,2.3,14.9c0,15.9-6.2,25.9-11.5,31.5c-3.5,3.8-6.9,6-9.2,7.2
		c-2.6,1.4-5.3,2.3-7,2.3C19.9,177,17.8,176.7,17,172.4"/>
	<path class="st0" d="M33.7,159.6c3-7.5,4.7-16,4.7-24c0-10.1-2.3-18.3-4.3-23.3c-2-5.3-4.1-8.4-4.8-9.4l-1.7-2.3l-0.2,2.9
		c-1.2,14.1-2.8,55.1-1.3,65.7l0.3,2l1.5-1.4c0.4-0.4,1.1-1.2,2.1-2.7C30.9,165.7,32.3,163.2,33.7,159.6 M28,166.2
		c-0.9-11.9,0.2-43.5,1.3-59.4c0.8,1.5,1.8,3.5,2.9,6.2c1.9,4.9,4.1,12.8,4.1,22.6c0,7.7-1.6,15.9-4.5,23.2
		c-1.4,3.5-2.7,5.8-3.6,7.1C28.1,166,28,166.1,28,166.2"/>
	<path class="st0" d="M300,96.6c-2.6-3.1-5.7-4.7-9.3-4.7c-3.3,0-6.3,1.5-9.1,4.6c-2.3,2.6-4.4,6.2-6.1,10.8c-3.1,8.3-5,19.3-5,29.5
		c0,5.2,0.4,10.4,1.2,15.3c0.8,5,2.1,9.5,3.7,13.4c1.7,4.2,3.8,7.5,6.2,9.8c2.7,2.6,5.8,4,9.1,4c2.9,0,5.6-1.4,8.1-4.1
		c2.1-2.4,3.9-5.7,5.4-9.9c2.8-7.9,4.5-18.6,4.5-29.4c0-6.3-0.4-18.4-3.3-28.2C303.9,102.8,302.1,99.1,300,96.6 M283,173.6
		c-2.2-2.1-4.1-5.2-5.7-9c-1.5-3.7-2.7-8-3.5-12.9c-0.8-4.8-1.2-9.8-1.2-14.9c0-10,1.8-20.7,4.9-28.8c1.6-4.3,3.6-7.7,5.7-10.1
		c2.3-2.6,4.8-3.9,7.5-3.9c2.9,0,5.5,1.3,7.7,4c1.9,2.4,3.6,5.8,4.9,10.1c2.8,9.6,3.2,21.4,3.2,27.6c0,10.6-1.6,21-4.3,28.7
		c-1.4,4-3.1,7-5,9.2c-2,2.3-4.2,3.4-6.4,3.4C287.9,177,285.3,175.8,283,173.6"/>
	<path class="st0" d="M299.1,134.2c0-11.1-0.9-17.9-1.7-21.6c-0.7-3.4-2-7.4-3.9-7.4c-2.8,0-4.9,6.4-5.9,10.3
		c-1.6,6.5-2.6,14.6-2.6,22.5c0,9.3,1.3,15.8,2.4,19.7c1.2,4.2,2.7,7.3,3.9,7.8l0.3,0.1l0.3,0c2.5-0.2,4.3-6.9,5-9.7
		C298.2,149.7,299.1,141.8,299.1,134.2 M291.8,163c-0.5-0.8-1.5-2.7-2.4-6c-1-3.7-2.3-10.1-2.3-19.1c0-7.6,0.9-15.6,2.5-21.9
		c1.5-5.9,3-8,3.6-8.5c0.4,0.5,1.2,1.9,1.9,5.6c0.8,3.6,1.7,10.2,1.7,21.1c0,7.4-0.8,15.1-2.2,21.1
		C293.6,159.9,292.5,162.2,291.8,163"/>
	<path class="st0" d="M350.4,98.5c0.2-4.1-2.7-6.3-5.5-6.5c-3-0.3-5.5,1.4-5.8,3.9c-1.1,8.3-1.6,21.7-1.8,34.1
		c-1.5-5.5-3.1-12.2-4.6-17.9c-1.5-5.9-3-12.1-4-15.5c-1-3.7-6.8-4.9-10.6-4.6c-3.4,0.3-5.5,1.7-5.8,4c-1.2,10.2-0.1,33,0.4,42.3
		c0.9,16.1,2.3,31.5,3.2,35.1c0.7,3,4.8,4.5,8.1,3.9c2.7-0.4,4.3-2.3,4-4.6c-0.2-2.1-1.2-16.7-1.3-29.1l0.1,0.4
		c6.3,20.9,9.2,29.9,10.4,31.6c1.2,1.7,4.8,3.6,7.9,3.6c0.7,0,1.4-0.1,2-0.3c1-0.3,3.4-1.6,3.3-5.5
		C350.2,157.2,349.8,110.5,350.4,98.5 M339,174.3c-1.2-1.7-6.1-17.9-10.1-30.9l-0.3-0.9c-0.7-2.2-1.3-4.4-1.9-6.3l-2-6.4l-0.2,6.7
		c-0.3,13.2,1.1,34,1.3,36.5c0.2,1.7-1.5,2.2-2.3,2.3c-2.5,0.4-5.3-0.7-5.6-2.3c-0.8-3.5-2.2-18.8-3.1-34.8
		c-0.5-9.3-1.6-31.9-0.4-41.9c0.2-1.7,2.7-2.1,3.8-2.1c3.5-0.3,7.8,1,8.4,3.1c1,3.4,2.5,9.5,4,15.4c2.1,8.6,4.8,19.3,6.6,25.2l2,6.6
		l0.1-6.9c0.2-14,0.6-31.4,1.9-41.3c0.2-1.3,1.7-2.2,3.5-2c1.7,0.2,3.7,1.4,3.5,4.3c-0.7,12-0.3,58.9,0.1,75.1
		c0.1,2.2-1,3.1-1.9,3.4c-0.4,0.1-0.8,0.2-1.3,0.2C342.9,177,339.9,175.5,339,174.3"/>
	<path class="st0" d="M394.3,134.4L394.3,134.4c-1.3-1.2-3-1.8-5.3-1.8h-10.4c-2.1,0-3.8,2.9-3.8,4.8c0,0.9,0.3,1.7,0.9,2.2
		c0.6,0.6,1.4,0.9,2.4,0.9h2.7c0.1,0.2,0.1,0.6,0.1,1.2c0,1.5-0.4,8.5-1.2,15c-0.9,7.2-1.9,10-2.4,11c-0.3-0.3-0.6-0.9-1.1-1.8
		c-0.9-1.9-1.8-4.7-2.7-8c-1.7-6.9-2.8-15.3-2.8-21.7c0-8.7,1-17.6,2.9-24.5c2-7.3,3.9-9.1,4.5-9.3c0.2,0.2,0.9,0.9,1.5,3.9
		c0.6,2.9,0.9,6.4,1.2,9.1c0.1,0.9,0.1,1.6,0.2,2.2c0.6,5.6,1.9,12,6.5,12c1.7,0,4.8-0.8,6.3-6.3c0.8-2.8,0.8-5.9,0.8-7.1
		c0-5.4-1.4-11.1-3.6-15.3c-3.2-5.9-8-9-13.9-9c-6.7,0-12.7,4.5-16.9,12.6c-2,3.9-3.6,8.5-4.6,13.7c-1.1,5.3-1.7,11.2-1.7,17.4
		c0,11.7,2.2,22.7,6.3,31c1.9,3.8,4.1,6.9,6.4,9.1c2.5,2.3,5.2,3.5,7.7,3.5c6.8,0,12.7-5.4,16.8-15.7c3.4-8.4,4.9-18.4,4.9-24.6
		C396.1,137,395.4,135.5,394.3,134.4 M368.1,174c-2.1-2-4.2-4.9-5.9-8.4c-3.9-8-6.1-18.7-6.1-30c0-6.1,0.5-11.8,1.6-17
		c1-5,2.5-9.4,4.4-13.2c3.8-7.4,9.1-11.5,15-11.5c5.1,0,9.2,2.7,12,7.9c2.1,3.9,3.4,9.3,3.4,14.3c0,1.1-0.1,4-0.8,6.5
		c-0.8,3.1-2.2,4.7-4.2,4.7c-2.1,0-3.6-3.4-4.3-10.1c-0.1-0.6-0.1-1.3-0.2-2.2c-0.2-2.6-0.5-6.3-1.2-9.3c-0.3-1.4-1.2-5.6-3.6-5.6
		c-2.4,0-4.8,4-6.7,10.9c-1.9,7-2.9,16.1-2.9,25c0,6.6,1.1,15.2,2.9,22.3c0.9,3.5,1.8,6.4,2.8,8.4c1.1,2.3,2.2,3.5,3.2,3.5
		c0.7,0,2.7,0,4.3-13.3c0.8-6.7,1.2-13.7,1.2-15.3c0-2.9-1.3-3.3-2-3.3h-2.9c-0.4,0-0.7-0.1-0.9-0.3c-0.2-0.2-0.2-0.4-0.2-0.7
		c0-1.1,1.1-2.6,1.6-2.6H389c1.7,0,3,0.4,3.8,1.2c0.7,0.7,1.1,1.7,1.1,2.9c0,6-1.5,15.7-4.8,23.8c-3.8,9.4-8.9,14.3-14.8,14.3
		C372.3,177,370.2,176,368.1,174"/>
	<path class="st1" d="M48,121.1c-1.5-4.9-3.8-9.6-6.5-13.5c-2.9-4.2-6.2-7.5-9.8-9.8c-3.9-2.5-8.1-3.8-12.3-3.8
		c-1.3,0-2.4,0-3.2,0.5c-0.5,0.3-1.2,0.9-1.3,2.8c-0.5,6.3-0.7,21.4-0.3,37.6c0.4,17.8,1.3,31.8,2.4,37.6c0.8,4.3,2.9,4.6,5.7,4.6
		c1.7,0,4.3-0.8,7-2.3c2.3-1.2,5.7-3.5,9.2-7.2c5.2-5.6,11.5-15.6,11.5-31.5C50.3,131.1,49.5,126,48,121.1z M30,167.1
		c-1,1.5-1.7,2.3-2.1,2.7l-1.5,1.4l-0.3-2c-1.5-10.6,0.1-51.5,1.3-65.7l0.2-2.9l1.7,2.3c0.8,1.1,2.8,4.1,4.8,9.4
		c1.9,5.1,4.3,13.2,4.3,23.3c0,8-1.7,16.5-4.7,24C32.3,163.2,30.9,165.7,30,167.1"/>
	<path class="st1" d="M298.3,97.9c-2.2-2.6-4.7-4-7.7-4c-2.6,0-5.2,1.3-7.5,3.9c-2.1,2.4-4.1,5.8-5.7,10.1c-3.1,8-4.9,18.8-4.9,28.8
		c0,5.1,0.4,10.1,1.2,14.9c0.8,4.9,2,9.2,3.5,12.9c1.6,3.9,3.5,6.9,5.7,9c2.3,2.2,4.9,3.4,7.6,3.4c2.3,0,4.4-1.1,6.4-3.4
		c1.9-2.2,3.6-5.2,5-9.2c2.8-7.6,4.3-18.1,4.3-28.7c0-6.2-0.4-18-3.2-27.6C301.9,103.7,300.2,100.3,298.3,97.9 M296.8,155.8
		c-0.7,2.8-2.5,9.5-5,9.7l-0.3,0l-0.3-0.1c-1.2-0.5-2.7-3.6-3.9-7.8c-1.1-3.9-2.4-10.4-2.4-19.7c0-7.8,0.9-16,2.6-22.5
		c1-3.8,3-10.3,5.9-10.3c1.9,0,3.2,4,3.9,7.4c0.8,3.7,1.7,10.5,1.7,21.6C299.1,141.8,298.2,149.7,296.8,155.8"/>
	<path class="st1" d="M348.3,98.3c0.2-2.9-1.8-4.1-3.5-4.3c-1.8-0.2-3.3,0.7-3.5,2c-1.3,9.9-1.7,27.3-1.9,41.3l-0.1,6.9l-2-6.6
		c-1.8-5.8-4.4-16.5-6.6-25.2c-1.5-5.9-3-12-4-15.4c-0.6-2.1-4.9-3.3-8.4-3.1c-1.1,0.1-3.6,0.5-3.8,2.1c-1.2,10-0.1,32.7,0.4,41.9
		c0.9,16,2.3,31.2,3.1,34.8c0.4,1.6,3.2,2.7,5.6,2.3c0.7-0.1,2.4-0.6,2.3-2.3c-0.2-2.6-1.6-23.3-1.3-36.5l0.2-6.7l2,6.4
		c0.6,2,1.3,4.1,1.9,6.3l0.3,0.9c4,13.1,8.9,29.3,10.1,30.9c0.9,1.2,3.8,2.7,6.2,2.7c0.5,0,0.9-0.1,1.3-0.2c0.9-0.3,1.9-1.1,1.9-3.4
		C348,157.3,347.6,110.4,348.3,98.3"/>
	<path class="st1" d="M392.8,135.9c-0.8-0.8-2.1-1.2-3.8-1.2h-10.4c-0.5,0-1.6,1.5-1.6,2.6c0,0.3,0.1,0.5,0.2,0.7
		c0.2,0.2,0.5,0.3,0.9,0.3h2.9c0.8,0,2,0.4,2,3.3c0,1.6-0.4,8.6-1.2,15.3c-1.7,13.3-3.7,13.3-4.3,13.3c-1,0-2.1-1.2-3.2-3.5
		c-1-2-1.9-4.9-2.8-8.4c-1.8-7.1-2.9-15.6-2.9-22.3c0-8.9,1.1-18,2.9-25c1.9-7,4.3-10.9,6.7-10.9c2.3,0,3.3,4.2,3.6,5.6
		c0.7,3,1,6.7,1.2,9.3c0.1,0.9,0.1,1.6,0.2,2.2c0.7,6.7,2.2,10.1,4.3,10.1c2,0,3.4-1.6,4.2-4.7c0.7-2.6,0.8-5.4,0.8-6.5
		c0-5-1.3-10.4-3.4-14.3c-2.8-5.2-6.9-7.9-12-7.9c-5.8,0-11.1,4.1-15,11.5c-1.9,3.7-3.4,8.1-4.4,13.2c-1.1,5.2-1.6,10.9-1.6,17
		c0,11.3,2.2,22,6.1,30c1.7,3.5,3.8,6.4,5.9,8.4c2.1,1.9,4.2,2.9,6.2,2.9c5.9,0,11-5,14.8-14.3c3.3-8.2,4.8-17.8,4.8-23.8
		C393.9,137.6,393.5,136.6,392.8,135.9"/>
	<path d="M29.3,106.8c-1.1,15.9-2.2,47.5-1.3,59.4c0.1-0.1,0.1-0.2,0.2-0.3c0.9-1.3,2.2-3.6,3.6-7.1c2.9-7.3,4.5-15.5,4.5-23.2
		c0-9.8-2.2-17.7-4.1-22.6C31.1,110.4,30.1,108.3,29.3,106.8 M31.5,146.2c0.1-5.9,0.3-12.3,0.5-18.4c0.3,2.4,0.5,5,0.5,7.8
		C32.5,139.1,32.1,142.7,31.5,146.2"/>
	<path d="M293.3,107.5c-0.6,0.5-2.1,2.6-3.6,8.5c-1.6,6.3-2.5,14.3-2.5,21.9c0,9,1.2,15.4,2.3,19.1c0.9,3.3,1.9,5.1,2.4,6
		c0.6-0.9,1.7-3.1,2.8-7.7c1.4-6,2.2-13.7,2.2-21.1c0-10.9-0.9-17.5-1.7-21.1C294.5,109.3,293.7,107.9,293.3,107.5 M291.9,150.2
		c-0.5-3.2-0.9-7.3-0.9-12.3c0-5.9,0.6-12.1,1.6-17.4c0.3,3.4,0.6,7.9,0.6,13.6C293.1,139.7,292.7,145.3,291.9,150.2"/>
	<path d="M310,65.8c0,0.4-0.2,1.2-0.6,1.2c-0.8,0.1-1.6,0.1-2.3,0.1c-0.3,0-0.5,0-0.7,0c-0.5,5.8-0.4,10.8-0.1,14.9
		c0,0.3-0.1,0.5-0.2,0.7c-0.2,0.1-0.4,0.2-0.6,0.3c-0.1,0-0.1,0-0.2,0c-0.2,0-0.5-0.1-0.6-0.2c-0.3-0.2-0.4-0.4-0.5-0.7
		c-0.5-2.6-0.9-10.6-0.6-14.9c-0.2,0-0.4,0-0.6,0c-0.8,0-1.8,0-2.2,0c-0.5,0-0.7-0.5-0.8-0.9c0-0.4,0.2-0.7,0.6-0.7
		c0.7-0.1,3.3-0.3,4.5-0.3c1.2,0,3.8,0.1,4.6,0.1C309.8,65.2,310,65.3,310,65.8"/>
	<path d="M316.6,68.2c0.6,2.1,0.7,4.6,0.7,5.9c0,2.3-0.3,4.5-0.9,6.1c-0.3,0.9-0.7,1.5-1.1,2c-0.5,0.5-1,0.8-1.5,0.8
		c-0.6,0-1.2-0.3-1.8-0.8c-0.5-0.5-0.9-1.1-1.3-2c-0.3-0.8-0.6-1.7-0.8-2.8c-0.2-1-0.3-2.1-0.3-3.2c0-2.1,0.4-4.4,1.1-6.2
		c0.4-0.9,0.8-1.7,1.3-2.2c0.5-0.6,1.1-0.9,1.7-0.9c0.7,0,1.3,0.3,1.8,0.9C316,66.5,316.3,67.3,316.6,68.2 M314.8,78.4
		c0.3-1.3,0.5-2.9,0.5-4.5c0-2.3-0.2-3.7-0.4-4.5c-0.2-1.1-0.5-1.4-0.6-1.4c-0.3,0-0.7,0.6-1,2c-0.3,1.4-0.5,3.1-0.5,4.7
		c0,1.9,0.3,3.3,0.5,4.1c0.3,1,0.6,1.5,0.7,1.5C314.2,80.2,314.5,79.7,314.8,78.4"/>
	<path d="M326.8,66.7c0.1,1.2,0.2,4.4,0,7.7c-0.3,4.1-1,6.8-2.1,8c-0.5,0.5-1,0.7-1.7,0.7c-0.9,0-1.7-0.3-2.3-1.1
		c-0.5-0.6-0.9-1.4-1.3-2.6c-0.4-1.3-0.8-3.3-0.9-5.7c-0.1-2.3-0.1-4.6,0.2-6.5c0.1-0.5,0.6-0.7,1.3-0.6c0.4,0,0.8,0.2,1,0.3
		c0.4,0.2,0.5,0.5,0.5,0.7c-0.2,2.3-0.2,5.3,0,8c0.2,3,0.6,5,1.1,5.6c0.1,0.1,0.2,0.1,0.2,0.1c0.2,0,0.5-0.2,0.9-1.4
		c0.3-0.9,0.5-2.2,0.7-3.8c0.3-2.8,0.5-6.5,0.5-10.3c0-0.2,0.1-0.4,0.3-0.5c0.3-0.2,0.7-0.1,1,0.1c0.3,0.2,0.5,0.5,0.5,0.8
		C326.8,66.2,326.8,66.4,326.8,66.7"/>
	<path d="M334.8,80.7c-0.1,0.3-0.5,0.5-0.8,0.6c-0.3,0.1-0.7,0.3-0.9,0.2c-0.1,0-0.4-0.1-1.4-0.9c-0.3-0.3-0.7-0.6-0.9-0.8
		c0,0.7,0.1,2,0.2,2.5c0,0.3-0.3,0.6-0.7,0.7c-0.1,0-0.1,0-0.2,0c-0.4,0-0.9-0.2-1.1-0.9c-0.6-2.1-1.2-13-1-16.7
		c0-0.1,0-0.1,0.1-0.1c0.5-0.3,1.5-0.2,2.5,0.4c1,0.5,1.9,1.4,2.5,2.4c0.8,1.2,1.2,2.7,1.2,4.3c0,1.5-0.5,3-0.9,3.9
		c-0.4,0.9-0.9,1.6-1.2,2c0.2,0.2,0.5,0.5,1,0.9c0.6,0.5,1.1,0.9,1.4,1.1C334.8,80.4,334.9,80.5,334.8,80.7 M330.7,77
		c0.6-0.9,1.1-2.5,1.1-4.6c0-2-0.5-3.6-1.1-4.4C330.7,69.5,330.6,74.5,330.7,77"/>
	<path d="M343.8,82.1c0,0.6-0.3,0.9-0.6,0.9c-0.1,0-0.2,0.1-0.4,0.1c-0.6,0-1.3-0.4-1.5-0.7c-0.3-0.4-1.1-3-2.2-6.6
		c-0.2-0.5-0.3-1.1-0.5-1.5c-0.1,2.7,0.2,7.1,0.3,7.7c0,0.4-0.2,0.7-0.7,0.7c-0.6,0.1-1.3-0.2-1.4-0.7c-0.2-0.8-0.5-4-0.7-7.4
		c-0.1-2-0.3-6.8-0.1-8.9c0-0.4,0.4-0.6,1-0.7c0.7-0.1,1.8,0.2,2,0.8c0.2,0.7,0.5,2,0.8,3.3c0.4,1.8,1,4.1,1.4,5.3
		c0-2.5,0.1-6.5,0.4-8.8c0.1-0.4,0.5-0.7,1-0.6c0.5,0,1,0.4,0.9,1.1C343.6,68.8,343.7,78.7,343.8,82.1"/>
	<path d="M353,82.2c0,0.5-0.6,0.8-1.1,0.9c-0.7,0.1-1.1-0.2-1.2-0.8c-0.2-1.1-0.7-3.8-1.2-6.6c-0.5,0-1.2,0-1.7,0
		c-0.4,2-0.7,4.3-0.9,6.7c0,0.5-0.3,0.7-0.8,0.7h0c-0.2,0-0.5-0.1-0.7-0.3c-0.2-0.2-0.4-0.4-0.4-0.7c-0.1-1.4,0.1-4.3,0.5-7.6
		c0.4-3.4,1-6.6,1.5-8.8c0.1-0.5,0.6-0.7,1.4-0.7c0.9,0,1.9,0.3,2.1,0.9C351.2,68.7,352.9,81.6,353,82.2C353,82.2,353,82.2,353,82.2
		 M349.2,74.2c-0.2-1-0.4-2.1-0.5-2.9c-0.2,0.9-0.4,1.9-0.6,2.9c0,0,0,0,0.1,0C348.5,74.2,348.9,74.2,349.2,74.2"/>
	<path d="M363.2,82.2c0.1,0.5-0.2,0.8-0.5,0.8c-0.1,0-0.1,0-0.2,0c-0.2,0-0.4-0.1-0.7-0.2c-0.3-0.2-0.6-0.5-0.7-0.9
		c-0.4-1-0.9-5.5-1.2-8.7c-0.3,1.7-0.5,3.7-0.5,4.2c0,0.5-0.5,0.9-0.9,0.9c-0.3,0.1-0.6-0.1-0.7-0.4c-0.1-0.2-0.3-1.2-0.7-2.9
		c-0.3-1.3-0.7-3-0.9-4c-0.2,3.4,0.4,9.3,0.7,10.8c0.1,0.4-0.3,0.8-0.8,0.9c-0.5,0.1-1.1-0.1-1.2-0.6c-0.5-2-0.8-5-1-7.7
		c-0.1-2.4-0.2-5.7,0.4-8.1c0.1-0.3,0.4-0.5,0.8-0.6c0.7-0.1,1.7,0.1,2,0.7c0.3,0.5,0.8,2.3,1.4,4.3c0.1,0.2,0.1,0.4,0.2,0.6
		c0-0.1,0.1-0.3,0.1-0.5c0.4-1.7,1-4.4,1.2-5.1c0.2-0.4,0.6-0.7,1.1-0.6c0.3,0.1,0.5,0.2,0.7,0.4c0.2,0.3,0.3,0.6,0.3,0.9
		C362,70.6,362.6,78.6,363.2,82.2"/>
	<path d="M367.3,67.5c-0.1,1.3-0.2,3.7-0.3,6.2c0.5,0,1.1,0,1.7,0c0.8,0,1.5,0,1.8,0c0.5,0,0.6,0.2,0.6,0.5c0,0.4-0.3,0.8-0.8,0.9
		c-0.2,0-0.5,0-1,0c-0.6,0-1.3,0-2,0c-0.2,0-0.3,0-0.5,0c-0.1,3.8,0,5.4,0.1,5.6c0.1,0.2,0.3,0.3,0.8,0.4c0.4,0.1,1,0.1,1.7,0.1
		c0.6,0,1.3,0.1,1.9,0.1c0.6,0.1,0.8,0.5,0.8,0.8c0,0.3-0.2,0.7-0.7,0.8c-1.2,0.2-3.9,0.2-3.9,0.2c-0.8,0-1.6-0.2-2.1-0.6
		c-0.5-0.4-0.9-0.9-1-1.5c-0.5-2.7-0.7-11.1-0.2-15.1c0-0.3,0.2-0.5,0.4-0.6c0.2-0.1,0.4-0.2,0.7-0.2c0.9,0,5.5,0.2,6.1,0.3
		c0.5,0.1,0.7,0.6,0.7,1.1c0,0.6-0.3,0.9-0.7,1C370.6,67.5,368,67.5,367.3,67.5"/>
	<path d="M381.2,82.1c0,0.6-0.3,0.9-0.6,0.9c-0.1,0-0.2,0.1-0.4,0.1c-0.6,0-1.3-0.4-1.5-0.7c-0.3-0.4-1.1-3-2.2-6.6
		c-0.2-0.5-0.3-1.1-0.5-1.5c-0.1,2.7,0.2,7.1,0.3,7.7c0,0.4-0.2,0.7-0.7,0.7c-0.6,0.1-1.3-0.2-1.4-0.7c-0.2-0.8-0.5-4-0.7-7.4
		c-0.1-2-0.3-6.8-0.1-8.9c0-0.4,0.4-0.6,1-0.7c0.7-0.1,1.8,0.2,2,0.8c0.2,0.7,0.5,2,0.8,3.3c0.4,1.8,1,4.1,1.4,5.3
		c0-2.5,0.1-6.5,0.4-8.8c0.1-0.4,0.5-0.7,1-0.6c0.5,0,1,0.4,0.9,1.1C381.1,68.8,381.2,78.7,381.2,82.1"/>
	<path d="M392.5,65.8c0,0.4-0.2,1.2-0.6,1.2c-0.8,0.1-1.6,0.1-2.3,0.1c-0.3,0-0.5,0-0.7,0c-0.5,5.8-0.4,10.8-0.1,14.9
		c0,0.3-0.1,0.5-0.3,0.7c-0.2,0.1-0.4,0.2-0.6,0.3c-0.1,0-0.1,0-0.2,0c-0.2,0-0.5-0.1-0.6-0.2c-0.3-0.2-0.4-0.4-0.5-0.7
		c-0.5-2.6-0.9-10.6-0.6-14.9c-0.2,0-0.4,0-0.6,0c-0.8,0-1.8,0-2.2,0c-0.5,0-0.7-0.5-0.8-0.9c0-0.4,0.2-0.7,0.6-0.7
		c0.7-0.1,3.3-0.3,4.5-0.3c1.2,0,3.8,0.1,4.6,0.1C392.2,65.2,392.5,65.3,392.5,65.8"/>
	<path d="M20.1,66c0.1,1.3-0.1,4-0.4,7.1c-0.4,3.1-0.9,6.2-1.4,8.1c-0.1,0.4-0.6,0.7-1.3,0.7c0,0,0,0-0.1,0c-0.8,0-1.7-0.3-1.9-0.9
		c-0.7-2.5-2.3-14.5-2.4-15c0,0,0,0,0,0c0-0.5,0.5-0.8,1-0.8c0.6-0.1,1.1,0.2,1.2,0.7c0.3,1.6,1.2,7,1.8,10.3
		c0.6-2.7,1.3-6.3,1.7-10.4c0-0.4,0.3-0.7,0.7-0.7c0.2,0,0.5,0.1,0.7,0.3C20,65.5,20.1,65.7,20.1,66"/>
	<path d="M24.1,66.3c-0.6,5.9-0.4,10.5-0.2,14.4c0,0.2-0.1,0.5-0.2,0.6c-0.1,0.1-0.3,0.2-0.6,0.3c0,0-0.1,0-0.1,0
		c-0.2,0-0.4-0.1-0.6-0.2c-0.3-0.2-0.4-0.4-0.5-0.7c-0.5-2.6-0.9-11.2-0.5-14.8c0.1-0.6,0.9-0.9,1.6-0.8c0.3,0,0.6,0.2,0.8,0.3
		C24,65.6,24.1,65.9,24.1,66.3"/>
	<path d="M32.7,76.6c0.1,0.2,0.2,0.4,0.1,0.7c-0.1,1.2-0.5,2.4-1.1,3.3c-0.7,0.9-1.5,1.4-2.3,1.4c-0.6,0-1.1-0.2-1.6-0.6
		c-0.5-0.4-1-1-1.3-1.7c-0.4-0.7-0.7-1.6-0.9-2.6c-0.2-1.1-0.3-2.2-0.3-3.5c0-1.2,0.1-2.4,0.3-3.5c0.2-1,0.5-1.9,0.9-2.6
		c0.8-1.5,1.9-2.3,3.1-2.3c2.4,0,3.2,2.8,3.2,3.8c0,1-0.5,1.1-0.7,1.1c-0.5,0-1-0.4-1-0.8c-0.1-0.5-0.2-1.2-0.4-1.7
		c-0.2-0.5-0.5-0.7-0.8-0.7c-0.3,0-0.7,0.6-1.1,2.1c-0.4,1.4-0.6,3.1-0.6,4.8c0,1.6,0.2,3.3,0.5,4.6c0.1,0.6,0.3,1.1,0.5,1.5
		c0.2,0.3,0.3,0.5,0.4,0.5c0.6,0,1-0.5,1.3-0.9c0.3-0.6,0.6-1.3,0.7-2.1c0.1-0.6,0.5-0.8,0.8-0.8C32.4,76.3,32.5,76.4,32.7,76.6"/>
	<path d="M42.3,65.7c0,0.4-0.2,1.1-0.5,1.1c-0.7,0.1-1.5,0.1-2.1,0.1c-0.2,0-0.5,0-0.6,0c-0.5,5.4-0.3,10-0.1,13.8
		c0,0.2-0.1,0.5-0.2,0.6c-0.1,0.1-0.3,0.2-0.6,0.3c0,0-0.1,0-0.1,0c-0.2,0-0.4-0.1-0.6-0.2c-0.3-0.2-0.4-0.4-0.5-0.7
		c-0.5-2.4-0.8-9.9-0.6-13.9c-0.2,0-0.4,0-0.6,0c-0.7,0-1.6,0-2.1,0c-0.4,0-0.7-0.4-0.7-0.8c0-0.4,0.2-0.6,0.6-0.7
		c0.7-0.1,3-0.3,4.2-0.3c1.1,0,3.6,0.1,4.2,0.1C42,65.2,42.3,65.3,42.3,65.7"/>
	<path d="M48.4,68c0.6,1.9,0.6,4.3,0.6,5.5c0,2.1-0.3,4.2-0.9,5.7c-0.3,0.8-0.6,1.4-1,1.9c-0.4,0.5-0.9,0.7-1.4,0.7
		c-0.6,0-1.2-0.2-1.6-0.7c-0.4-0.4-0.8-1.1-1.2-1.8c-0.3-0.7-0.5-1.6-0.7-2.6c-0.2-0.9-0.2-1.9-0.2-3c0-2,0.4-4.1,1-5.7
		c0.3-0.9,0.7-1.6,1.2-2.1c0.5-0.6,1-0.8,1.6-0.8c0.6,0,1.2,0.3,1.7,0.9C47.8,66.4,48.1,67.1,48.4,68 M46.7,77.4
		c0.3-1.2,0.4-2.7,0.4-4.2c0-2.2-0.2-3.5-0.3-4.2c-0.2-1.1-0.5-1.3-0.6-1.3c-0.2,0-0.6,0.6-0.9,1.9c-0.3,1.3-0.5,2.8-0.5,4.4
		c0,1.8,0.2,3.1,0.5,3.8c0.3,1,0.6,1.4,0.6,1.4C46.1,79.1,46.4,78.7,46.7,77.4"/>
	<g>
		<path d="M140.5,178.7"/>
		<path d="M228.6,178.3c0-0.6-0.1-1.1-0.3-1.7C228.4,177.2,228.5,177.8,228.6,178.3"/>
		<path class="st0" d="M84,97c-1-3.6-6.3-5.3-11-5.3c-4.2,0.1-7.1,1.7-7.8,4.3c-2.5,10.1-5.1,25.7-7,41.6c-1.9,16-2.8,29.6-2.3,36.4
			c0.1,1.6,0.9,3,2.2,4.1c1.2,1,2.7,1.5,4.1,1.5c2.6,0,4.5-1.7,4.7-4.5c1-9.8,2.4-19.9,4.3-30.8c1.9,0,4.2,0,6.1,0
			c2.5,13.8,4.6,25.6,5.4,30.3c0.5,3.1,3.4,5,7,4.6c3.1-0.3,6.3-2.3,6.2-5.4v0l0-0.2C95.8,171,87.6,109.7,84,97 M94,173.9
			c0.1,1.7-2.1,2.9-4.3,3.2c-2.5,0.3-4.3-0.8-4.7-2.8c-0.8-4.7-3-17-5.6-31.2l-0.2-0.9l-0.9,0c-2.5,0-5.5,0-8,0h-0.9l-0.2,0.9
			c-2,11.3-3.5,21.7-4.5,31.9c-0.2,1.6-1.1,2.5-2.6,2.5c-0.9,0-1.9-0.4-2.7-1c-0.9-0.7-1.4-1.6-1.5-2.6c-0.5-6.6,0.3-20.1,2.2-36
			c1.9-15.8,4.5-31.2,7-41.3c0.4-1.6,2.6-2.6,5.7-2.7c0.1,0,0.2,0,0.2,0c3.7,0,8,1.4,8.6,3.7C85.5,110.1,93.7,171.3,94,173.9l1.1,0
			L94,173.9L94,173.9z"/>
		<path class="st0" d="M75.7,121.9l-1-5.4l-1.1,5.4c-0.9,4.2-1.8,8.8-2.8,13.9l-0.2,1.3l1.6,0c1.9,0,3.6,0,5-0.1l1.3,0l-0.2-1.3
			C77.3,130.7,76.4,126,75.7,121.9 M73.2,134.8c0.5-2.5,0.9-4.8,1.4-7.1c0.4,2.3,0.8,4.6,1.3,7.1C75,134.8,74.1,134.8,73.2,134.8"/>
		<path class="st0" d="M136.6,98.5c0.2-4.1-2.7-6.3-5.5-6.5c-3-0.3-5.5,1.4-5.8,3.9c-1.1,8.3-1.6,21.7-1.8,34.1
			c-1.5-5.5-3.1-12.2-4.6-17.9c-1.5-5.9-3-12.1-4-15.5c-1-3.7-6.8-4.9-10.6-4.6c-3.4,0.3-5.5,1.7-5.8,4c-1.2,10.2-0.1,33,0.4,42.3
			c0.9,16.1,2.3,31.5,3.2,35.1c0.7,3,4.8,4.5,8.1,3.9c2.7-0.4,4.3-2.3,4-4.6c-0.2-2.1-1.2-16.7-1.3-29.1l0.1,0.4
			c6.3,20.9,9.2,29.9,10.4,31.6c1.2,1.7,4.8,3.6,7.9,3.6c0.7,0,1.4-0.1,2-0.3c1-0.3,3.4-1.6,3.3-5.5
			C136.3,157.2,135.9,110.4,136.6,98.5 M125.2,174.3c-1.2-1.7-6.1-17.9-10.1-30.9l-4.2-13.6l-0.2,6.7c-0.3,13.2,1.1,34,1.3,36.5
			c0.2,1.7-1.5,2.2-2.3,2.3c-2.5,0.4-5.3-0.7-5.6-2.3c-0.8-3.5-2.2-18.8-3.1-34.8c-0.5-9.3-1.6-31.9-0.4-41.9
			c0.2-1.7,2.7-2.1,3.8-2.1c3.5-0.3,7.8,1,8.4,3.1c1,3.4,2.5,9.5,4,15.4c2.1,8.6,4.8,19.3,6.6,25.2l2,6.6l0.1-6.9
			c0.2-14,0.6-31.4,1.9-41.3c0.2-1.3,1.7-2.2,3.5-2c1.7,0.2,3.7,1.4,3.5,4.3c-0.7,12-0.3,58.9,0.1,75.1c0.1,2.2-1,3.1-1.9,3.4
			c-0.4,0.1-0.8,0.2-1.3,0.2C129,177,126.1,175.5,125.2,174.3"/>
		<path class="st0" d="M177.9,120.5c-1.6-5.1-3.9-10-6.8-14.1c-3-4.4-6.5-7.9-10.4-10.4c-4.3-2.7-8.8-4.1-13.5-4.1
			c-1.7,0-3,0.1-4.2,0.7c-1.4,0.8-2.2,2.3-2.4,4.5c-0.6,6.4-0.7,21.6-0.3,37.8c0.4,17.9,1.3,32.1,2.4,37.9c1.1,5.9,4.6,6.4,7.8,6.4
			c2.1,0,5-0.9,8-2.5c2.4-1.3,6.1-3.7,9.8-7.6c4.9-5.2,10.6-14.1,11.8-27.6c0.2-1.7,0.2-3.5,0.2-5.4c0-2.1-0.2-4.2-0.4-6.4
			C179.5,126.5,178.8,123.4,177.9,120.5 M144.8,172.4c-1.1-5.7-2-19.7-2.4-37.6c-0.4-16.2-0.3-31.3,0.3-37.6
			c0.2-1.9,0.8-2.5,1.3-2.8c0.8-0.4,1.8-0.5,3.2-0.5c4.3,0,8.4,1.3,12.3,3.8c3.6,2.3,6.9,5.6,9.8,9.8c2.7,4,5,8.6,6.5,13.5
			c1.5,4.9,2.3,10,2.3,14.9c0,15.9-6.2,25.9-11.5,31.5c-3.5,3.8-6.9,6-9.2,7.2c-2.6,1.4-5.3,2.3-7,2.3
			C147.7,177,145.7,176.7,144.8,172.4"/>
		<path class="st0" d="M161.6,159.6c3-7.5,4.7-16,4.7-24c0-10.1-2.3-18.3-4.2-23.3c-2-5.3-4.1-8.4-4.8-9.4l-1.7-2.3l-0.2,2.9
			c-1.2,14.1-2.8,55.1-1.3,65.7l0.3,2l1.5-1.3c0.4-0.4,1.1-1.2,2.1-2.7C158.7,165.7,160.1,163.2,161.6,159.6 M156,165.9
			c-0.1,0.1-0.1,0.2-0.2,0.3c-0.9-11.9,0.2-43.5,1.3-59.4c0.8,1.5,1.8,3.5,2.9,6.2c1.9,4.9,4.1,12.8,4.1,22.6
			c0,7.7-1.6,15.9-4.5,23.2C158.1,162.3,156.8,164.6,156,165.9z"/>
		<path class="st0" d="M220.6,105c2-0.2,3.5-1.4,4.1-3.4c0.2-0.7,0.4-1.4,0.4-2.3c0-0.5,0-1.1-0.1-1.6c-0.4-2.3-1.9-4.4-4.2-4.6
			c-3.2-0.3-24.9-1.5-29.2-1.3c-1.6,0.1-3,0.4-4,1c-1.5,0.8-2.4,2.1-2.6,3.8c-1,8.4-1.4,20.7-1.4,32.9c0,4,0.1,7.9,0.2,11.7
			c0.3,11.6,1,21.9,2,27.2c0.6,3.1,2.4,5.8,5.2,7.6c2.8,1.9,6.5,2.9,10.7,2.9c0.1,0,12.7,0,18.6-1.1c3.1-0.6,4.5-2.8,4.4-4.8
			c0-2-1.6-4.4-4.8-4.8c-3.1-0.4-6.4-0.6-9.2-0.7c-2.9-0.1-5.7-0.3-7.7-0.6c-2.5-0.4-2.8-1-2.8-1.1c-0.3-0.8-0.8-7-0.6-24.8l1.2,0
			c3.1,0,6.5,0,9.3,0c2.7,0,4.3,0,5-0.1c2.7-0.2,4.7-3,4.6-5.2c-0.1-1.7-1.4-3.3-4.2-3.2c-1.7,0.1-5.3,0-8.7,0l-0.3,0
			c-2.3,0-4.7,0-6.7-0.1c0.3-10.9,0.7-21,1.2-27C204.5,105.5,216,105.4,220.6,105 M199.1,103.4l-0.1,1c-0.5,6.1-1,17.3-1.3,29.3
			l0,1.1l1.1,0c2.3,0,5,0,7.8,0.1l0.3,0c3.5,0,7,0.1,8.8,0c1.2,0,1.9,0.4,2,1.2c0.1,1.2-1.2,2.8-2.6,2.9c-0.6,0-2.2,0.1-4.8,0.1
			c-2.8,0-6.3,0-9.3,0l-3.3,0l0,1.1c-0.1,7.3-0.3,24.6,0.7,26.8c0.5,1.1,1.9,1.8,4.4,2.3c2.2,0.4,5,0.5,8,0.7c2.8,0.1,6,0.3,9.1,0.7
			c2,0.3,2.9,1.6,3,2.7c0,1-0.7,2.3-2.6,2.7c-5.7,1-18.1,1-18.2,1c-3.7,0-7-0.9-9.5-2.6c-2.3-1.6-3.8-3.8-4.3-6.3
			c-2.3-12.5-3.1-52.1-0.8-71.2c0.1-0.9,0.6-1.7,1.5-2.1c0.7-0.4,1.8-0.7,3-0.7c0.3,0,0.6,0,1,0c5.9,0,24.9,1,27.8,1.3
			c1.5,0.2,2.4,2.2,2.4,4.1c0,2.1-1,3.4-2.5,3.5c-5.3,0.4-20.2,0.5-20.4,0.5L199.1,103.4z"/>
		<path class="st0" d="M267,98.5c0.2-4.1-2.7-6.3-5.5-6.5c-3-0.3-5.5,1.4-5.8,3.9c-1.1,8.3-1.6,21.7-1.8,34.1
			c-1.5-5.5-3.1-12.2-4.6-17.9c-1.5-5.9-3-12.1-4-15.5c-1-3.7-6.8-4.9-10.6-4.6c-3.4,0.3-5.5,1.7-5.8,4c-0.1,0.5-0.1,1.1-0.2,1.6
			c-0.1,1.4-0.2,3-0.3,4.7c-0.4,11.4,0.4,28.2,0.8,35.9c0.9,16.1,2.3,31.5,3.2,35.1c0.7,3,4.8,4.5,8.1,3.9c2.7-0.4,4.3-2.3,4-4.6
			c-0.2-2.1-1.2-16.7-1.3-29.1l0.1,0.4c6.3,20.9,9.2,29.9,10.4,31.6c1.2,1.7,4.8,3.6,7.9,3.6c0.7,0,1.4-0.1,2-0.3
			c1-0.3,3.4-1.6,3.3-5.5C266.7,157.2,266.3,110.4,267,98.5 M255.6,174.3c-1.2-1.7-6.1-17.9-10.1-30.9l-0.3-0.9
			c-0.7-2.2-1.3-4.4-1.9-6.3l-2-6.4l-0.2,6.7c-0.3,13.2,1.1,34,1.3,36.5c0.2,1.7-1.5,2.2-2.3,2.3c-2.5,0.4-5.3-0.7-5.6-2.3
			c-0.8-3.5-2.2-18.8-3.1-34.8c-0.5-9.3-1.6-31.9-0.4-41.9c0.2-1.7,2.7-2.1,3.8-2.1c3.5-0.3,7.8,1,8.4,3.1c1,3.4,2.5,9.5,4,15.4
			c2.1,8.6,4.8,19.3,6.6,25.2l2,6.6l0.1-6.9c0.2-14,0.6-31.4,1.9-41.3c0.2-1.3,1.7-2.2,3.5-2c1.7,0.2,3.7,1.4,3.5,4.3
			c-0.7,12-0.3,58.9,0.1,75.1v0c0.1,2.2-1,3.1-1.9,3.4c-0.4,0.1-0.8,0.2-1.3,0.2C259.4,177,256.4,175.5,255.6,174.3"/>
		<path class="st1" d="M82,97.5c-0.6-2.3-4.9-3.7-8.6-3.7c-0.1,0-0.2,0-0.2,0c-3.1,0-5.3,1.1-5.7,2.7c-2.5,10.1-5.1,25.5-7,41.3
			c-1.9,15.9-2.7,29.3-2.2,36c0.1,1,0.6,1.9,1.5,2.6c0.8,0.7,1.8,1,2.7,1c1.5,0,2.5-0.9,2.6-2.5c1-10.2,2.5-20.6,4.5-31.9l0.2-0.9
			h0.9c2.4,0,5.5,0,8,0l0.9,0l0.2,0.9c2.6,14.2,4.7,26.4,5.6,31.2c0.3,2,2.1,3.1,4.7,2.8c2.1-0.2,4.3-1.5,4.3-3.2v0l1.1,0l-1.1,0
			C93.7,171.3,85.5,110.1,82,97.5 M77.1,137c-1.4,0-3.1,0-5,0.1l-1.6,0l0.2-1.3c1-5,1.9-9.6,2.8-13.9l1.1-5.4l1,5.4
			c0.7,4.1,1.6,8.9,2.5,13.8l0.2,1.3L77.1,137z"/>
		<path class="st1" d="M134.4,98.3c0.2-2.9-1.8-4.1-3.5-4.3c-1.8-0.2-3.3,0.7-3.5,2c-1.3,9.9-1.7,27.2-1.9,41.3l-0.1,6.9l-2-6.6
			c-1.8-5.8-4.4-16.5-6.6-25.2c-1.5-5.9-3-12-4-15.4c-0.6-2.1-4.9-3.3-8.4-3.1c-1.1,0.1-3.6,0.5-3.8,2.1c-1.2,10-0.1,32.7,0.4,41.9
			c0.9,16,2.3,31.2,3.1,34.8c0.4,1.6,3.2,2.7,5.6,2.3c0.7-0.1,2.4-0.6,2.3-2.3c-0.2-2.6-1.6-23.3-1.3-36.5l0.2-6.7l4.2,13.6
			c4,13.1,8.9,29.3,10.1,30.9c0.9,1.2,3.8,2.7,6.2,2.7c0.5,0,0.9-0.1,1.3-0.2c0.9-0.3,1.9-1.1,1.9-3.4
			C134.2,157.2,133.8,110.4,134.4,98.3"/>
		<path class="st1" d="M169.4,107.6c-2.9-4.2-6.2-7.5-9.8-9.8c-3.9-2.5-8.1-3.8-12.3-3.8c-1.3,0-2.4,0-3.2,0.5
			c-0.5,0.3-1.2,0.9-1.3,2.8c-0.5,6.3-0.7,21.4-0.3,37.6c0.4,17.8,1.3,31.8,2.4,37.6c0.8,4.3,2.9,4.6,5.7,4.6c1.7,0,4.3-0.8,7-2.3
			c2.3-1.2,5.7-3.5,9.2-7.2c5.2-5.6,11.5-15.6,11.5-31.5c0-4.8-0.8-10-2.3-14.9C174.3,116.2,172.1,111.5,169.4,107.6 M157.8,167.1
			c-1,1.5-1.7,2.3-2.1,2.7l-1.5,1.3l-0.3-2c-1.5-10.6,0.1-51.5,1.3-65.7l0.2-2.9l1.7,2.3c0.8,1.1,2.8,4.1,4.8,9.4
			c1.9,5.1,4.3,13.2,4.3,23.3c0,8-1.7,16.5-4.7,24C160.1,163.2,158.7,165.7,157.8,167.1"/>
		<path class="st1" d="M199,104.4l0.1-1l1,0c0.1,0,15.1-0.1,20.4-0.5c1.5-0.1,2.5-1.5,2.5-3.5c0-1.9-0.9-3.9-2.4-4.1
			c-2.9-0.3-21.9-1.3-27.8-1.3c-0.4,0-0.8,0-1,0c-1.3,0-2.3,0.3-3,0.7c-0.9,0.5-1.4,1.2-1.5,2.1c-2.3,19.1-1.5,58.7,0.8,71.2
			c0.5,2.5,2,4.7,4.3,6.3c2.5,1.7,5.8,2.6,9.5,2.6c0.1,0,12.5,0,18.2-1c2-0.4,2.7-1.6,2.6-2.7c0-1.1-1-2.5-3-2.7
			c-3-0.4-6.2-0.6-9.1-0.7c-3-0.1-5.8-0.3-8-0.7c-2.5-0.4-3.9-1.2-4.4-2.3c-1-2.2-0.9-19.5-0.7-26.8l0-1.1l3.3,0c3.1,0,6.5,0,9.3,0
			c2.6,0,4.2,0,4.8-0.1c1.4-0.1,2.7-1.7,2.6-2.9c0-0.8-0.7-1.3-2-1.2c-1.8,0.1-5.3,0-8.8,0l-0.3,0c-2.7,0-5.5-0.1-7.8-0.1l-1.1,0
			l0-1.1C197.9,121.7,198.4,110.5,199,104.4"/>
		<path class="st1" d="M264.8,98.3c0.2-2.9-1.8-4.1-3.5-4.3c-1.8-0.2-3.3,0.7-3.5,2c-1.3,9.9-1.7,27.3-1.9,41.3l-0.1,6.9l-2-6.6
			c-1.8-5.8-4.4-16.5-6.6-25.2c-1.5-5.9-3-12-4-15.4c-0.6-2.1-4.9-3.3-8.4-3.1c-1.1,0.1-3.6,0.5-3.8,2.1c-1.2,10-0.1,32.7,0.4,41.9
			c0.9,16,2.3,31.2,3.1,34.8c0.4,1.6,3.2,2.7,5.6,2.3c0.7-0.1,2.4-0.6,2.2-2.3c-0.2-2.6-1.6-23.3-1.3-36.5l0.2-6.7l2,6.4
			c0.6,2,1.3,4.1,1.9,6.3l0.3,0.9c4,13.1,8.9,29.3,10.1,30.9c0.9,1.2,3.8,2.7,6.2,2.7c0.5,0,0.9-0.1,1.3-0.2
			c0.9-0.3,1.9-1.1,1.9-3.4v0C264.5,157.2,264.1,110.4,264.8,98.3"/>
		<path d="M73.2,134.8c1,0,1.9,0,2.7,0c-0.4-2.4-0.9-4.8-1.3-7.1C74.1,130,73.6,132.4,73.2,134.8"/>
		<path d="M157.1,106.8c-1.1,15.9-2.2,47.5-1.3,59.4c0.1-0.1,0.1-0.2,0.2-0.3c0.8-1.3,2.2-3.6,3.6-7.1c2.9-7.3,4.5-15.5,4.5-23.2
			c0-9.8-2.2-17.7-4.1-22.6C158.9,110.4,157.9,108.3,157.1,106.8 M159.3,146.2c0.1-5.9,0.3-12.3,0.5-18.4c0.3,2.4,0.5,5,0.5,7.8
			C160.3,139.1,160,142.7,159.3,146.2"/>
		<path d="M396.9,131.7c-0.6-0.6-1.4-1.2-2.4-1.7c1.1-1.3,2.2-3.2,2.9-5.8c0.8-3.1,1-6.4,1-8.1c0-5.9-1.5-12.3-4.1-17.1
			c-3.8-7.1-9.9-11-17.2-11c-8.2,0-15.3,5.2-20.2,14.7c-1.1,2.1-2.1,4.5-2.9,7c0.1-4.7,0.1-8.6,0.3-11c0.4-6.3-4.2-10.1-8.9-10.5
			c-5-0.5-9.3,2.6-9.9,7.2c-0.3,2.4-0.6,5.2-0.8,8.4c-0.8-3.3-1.6-6.2-2.1-8.2c-1.7-6.1-9.6-7.7-14.5-7.4c-6.2,0.5-8.9,4.1-9.2,7.3
			c-0.3,2.4-0.5,5.4-0.5,8.7c-1.4-4.1-3.2-7.5-5.3-10c-3.3-4-7.5-6.1-12.2-6.1c-3,0-7.5,1-11.9,5.8c-2.6,2.9-4.9,7-6.9,12
			c-0.5,1.4-1,2.9-1.5,4.4c0.1-5,0.1-9.1,0.3-11.6c0.4-6.3-4.2-10.1-8.9-10.5c-5-0.5-9.3,2.6-9.9,7.2c-0.3,2.4-0.6,5.2-0.8,8.4
			c-0.8-3.3-1.6-6.2-2.1-8.2c-1.7-6.1-9.6-7.8-14.5-7.4c-4.1,0.3-6.6,2-8,4.1c-1.3-1.6-3.1-2.6-5.2-2.8c-3-0.3-25.1-1.5-29.7-1.3
			c-2.2,0.1-4.1,0.6-5.7,1.4c-2.5,1.4-4.1,3.8-4.5,6.6c-0.6,5.3-1,11.9-1.3,19.2c-1.6-4-3.5-7.7-5.8-11c-3.3-4.8-7.2-8.7-11.5-11.5
			c-4.9-3.1-10.1-4.7-15.5-4.7c-2.1,0-4.1,0.1-6.1,1.2c-0.9,0.5-2,1.3-2.8,2.6c-1.7-2.2-4.3-3.5-6.9-3.7c-5-0.5-9.3,2.6-9.9,7.2
			c-0.3,2.4-0.6,5.2-0.8,8.4c-0.8-3.3-1.6-6.2-2.1-8.2c-1.7-6.1-9.6-7.8-14.5-7.4c-6.2,0.5-8.9,4.1-9.2,7.3
			c-1.3,10.5-0.2,33.6,0.4,43c0,0.7,0.1,1.5,0.1,2.2c-2.6-17.9-5.8-37.9-7.7-44.7c-1.6-5.7-8.5-8.1-14.7-8c-6,0.1-10.3,2.8-11.4,7.2
			c-2.1,8.3-4.2,20.2-5.9,33c-0.4-2.9-1.1-5.9-2-8.8c-1.7-5.4-4.2-10.7-7.2-15.1c-3.3-4.8-7.2-8.7-11.5-11.5
			C30.1,89.6,24.8,88,19.4,88c-2.1,0-4.1,0.1-6.1,1.2c-1.8,1-4,3.1-4.3,7.5c-0.6,6.5-0.7,21.9-0.3,38.2c0.4,18.4,1.3,32.4,2.5,38.5
			c1.8,9.4,9.1,9.4,11.5,9.4c3.7,0,7.7-1.9,9.8-3c2.7-1.4,6.7-4,10.8-8.4c3.2-3.5,6.8-8.4,9.4-15.1c-0.5,7.6-0.7,13.8-0.4,17.8
			c0.2,2.6,1.5,5,3.6,6.8c1.8,1.5,4.1,2.3,6.4,2.4h0.1c4.5,0,8-3.2,8.5-7.9c0.8-8.6,2-17.5,3.6-26.9c2.2,12.2,4,22.4,4.7,26.6
			c0.9,5.1,5.5,8.3,11.1,7.7c4.5-0.5,7.9-3,9.1-6.3c2.3,3.6,7.2,5.1,11.4,4.4c4.6-0.8,7.6-4.3,7.2-8.6c1.1,3.1,1.8,4.5,2.4,5.3
			c2.1,2.9,6.9,5.2,11,5.2c1.1,0,2.2-0.2,3.2-0.5c2.2-0.7,4.5-2.5,5.4-5.6c2.7,6.1,8.4,6.1,10.5,6.1c3.7,0,7.7-1.9,9.8-3
			c2.7-1.4,6.7-4,10.8-8.4c3.4-3.6,7.1-8.8,9.7-15.8c0.4,5.6,0.9,10.3,1.4,13.4c0.8,4.1,3.2,7.6,6.8,10.1c3.5,2.4,7.9,3.6,12.8,3.6
			c0.5,0,13,0,19.3-1.1c5.3-1,7.6-5.1,7.5-8.6c0,0,0-0.1,0-0.1c-0.1-0.5-0.2-1.1-0.3-1.7c-0.8-3.1-3.5-6.1-7.9-6.7
			c-3.3-0.4-6.6-0.6-9.5-0.7c-2.8-0.1-5.4-0.3-7.2-0.6c0,0,0,0,0,0c-0.2-2.6-0.4-8.3-0.3-18.3c2.3,0,4.7,0,6.8,0
			c3.6,0,4.7,0,5.3-0.1c4.6-0.3,8.3-4.6,8.1-9.1c-0.2-3.5-3-7-8.1-6.8c-1.6,0-5.3,0-8.5,0l-0.3,0c-0.9,0-1.9,0-2.8,0
			c0.2-7.5,0.5-14.4,0.9-19.6c5-0.1,12.7-0.2,16.3-0.5c1.4-0.1,2.6-0.5,3.7-1.2c-0.1,10.3,0.5,22.8,1,30.8
			c0.7,11.8,1.8,25.9,2.7,32.7c0.1,0.6,0.2,1.1,0.3,1.7c0.1,0.5,0.2,1,0.3,1.4c1.2,5.3,7.4,7.6,12.4,6.8c4.6-0.8,7.6-4.3,7.2-8.6
			c1.1,3.1,1.8,4.5,2.4,5.4c2.1,2.9,6.9,5.2,11,5.2c1.1,0,2.2-0.2,3.2-0.5c2.9-1,6-3.9,5.9-9.1c-0.1-2.5-0.1-5.8-0.2-9.6
			c0.4,1.1,0.7,2.1,1.2,3.1c1.9,4.6,4.3,8.4,7,11c3.4,3.3,7.5,5.1,11.8,5.1c2.8,0,7-0.9,10.9-5.4c2.4-2.7,4.4-6.5,6.1-11.1
			c1.1-2.9,1.9-6.2,2.7-9.7c0.7,8.1,1.4,15,2,17.6c1.2,5.3,7.4,7.6,12.4,6.8c4.6-0.8,7.6-4.3,7.2-8.6c1.1,3.1,1.8,4.5,2.4,5.3
			c2.1,2.9,6.9,5.2,11,5.2c1.1,0,2.2-0.2,3.2-0.5c2.9-1,6-3.9,5.9-9.1v0c-0.1-3-0.1-7-0.2-11.7c0.8,2.3,1.7,4.6,2.7,6.6
			c2.1,4.2,4.6,7.7,7.2,10.2c3.2,3,6.8,4.5,10.3,4.5c5.9,0,14.3-3.1,20.3-18.1c3.6-8.9,5.2-19.5,5.2-26
			C399.8,136,398.8,133.5,396.9,131.7L396.9,131.7z M40.5,169c-3.7,4-7.4,6.3-9.8,7.6c-3,1.6-5.9,2.5-8,2.5c-3.2,0-6.7-0.5-7.8-6.4
			c-1.1-5.8-2-20-2.4-37.9c-0.4-16.2-0.3-31.4,0.3-37.8c0.2-2.2,1-3.7,2.4-4.5c1.2-0.7,2.6-0.7,4.2-0.7c4.7,0,9.2,1.4,13.5,4.1
			c3.9,2.5,7.4,6,10.4,10.4c2.8,4.1,5.2,9,6.8,14.1c1.6,5.1,2.4,10.5,2.4,15.5C52.5,152.6,46,163.1,40.5,169 M96.2,173.8
			c0.1,3.1-3.1,5.1-6.2,5.4c-3.7,0.4-6.5-1.5-7-4.6c-0.8-4.6-2.9-16.4-5.4-30.3c-2,0-4.2,0-6.1,0c-1.9,10.9-3.3,21-4.3,30.8
			c-0.3,2.7-2.1,4.5-4.7,4.5c-1.5,0-3-0.6-4.1-1.5c-1.3-1.1-2.1-2.5-2.2-4.1c-0.5-6.8,0.3-20.4,2.3-36.4c1.9-15.9,4.5-31.4,7-41.6
			c0.6-2.6,3.6-4.2,7.8-4.3c4.7,0,10,1.7,11,5.3c3.6,12.7,11.8,74.1,12.1,76.7L96.2,173.8L96.2,173.8z M133.4,178.8
			c-0.6,0.2-1.3,0.3-2,0.3c-3.1,0-6.7-1.9-7.9-3.6c-1.2-1.7-4.1-10.7-10.4-31.6l-0.1-0.4c0.1,12.4,1.1,27,1.3,29.1
			c0.2,2.4-1.4,4.2-4,4.6c-3.3,0.5-7.4-0.9-8.1-3.9c-0.9-3.6-2.2-19.1-3.2-35.1c-0.5-9.3-1.6-32.1-0.4-42.3c0.3-2.3,2.4-3.8,5.8-4
			c3.8-0.3,9.6,1,10.6,4.6c1,3.5,2.5,9.6,4,15.5c1.4,5.7,3.1,12.4,4.6,17.9c0.2-12.4,0.7-25.8,1.8-34.1c0.3-2.5,2.8-4.2,5.8-3.9
			c2.8,0.3,5.7,2.4,5.5,6.5c-0.7,12-0.3,58.8,0.1,74.9C136.8,177.3,134.4,178.5,133.4,178.8 M168.3,169c-3.7,4-7.4,6.3-9.8,7.6
			c-3,1.6-5.9,2.5-8,2.5c-3.2,0-6.7-0.5-7.8-6.4c-1.1-5.8-2-20-2.4-37.9c-0.4-16.2-0.3-31.4,0.3-37.8c0.2-2.2,1-3.7,2.4-4.5
			c1.2-0.7,2.6-0.7,4.2-0.7c4.7,0,9.2,1.4,13.5,4.1c3.9,2.5,7.4,6,10.4,10.4c2.8,4.1,5.2,9,6.8,14.1c0.9,3,1.6,6.1,2,9.1
			c0.3,2.2,0.4,4.3,0.4,6.4c0,1.9-0.1,3.7-0.2,5.4C178.8,154.9,173.2,163.7,168.3,169 M220.6,105c-4.6,0.4-16.1,0.5-19.6,0.5
			c-0.5,6.1-0.9,16.2-1.2,27c2,0,4.4,0,6.7,0.1l0.3,0c3.4,0,7,0.1,8.7,0c2.8-0.1,4.1,1.6,4.2,3.2c0.1,2.2-1.9,5-4.6,5.2
			c-0.7,0.1-2.3,0.1-5,0.1c-2.8,0-6.3,0-9.3,0l-1.2,0c-0.3,17.7,0.2,24,0.6,24.8c0,0,0.3,0.6,2.8,1.1c2,0.4,4.8,0.5,7.7,0.6
			c2.9,0.1,6.1,0.3,9.2,0.7c3.3,0.4,4.8,2.8,4.8,4.8c0,2-1.3,4.3-4.4,4.8c-5.9,1.1-18.5,1.1-18.6,1.1c-4.2,0-7.9-1-10.7-2.9
			c-2.8-1.9-4.6-4.6-5.2-7.7c-1-5.4-1.7-15.7-2-27.2c-0.1-3.8-0.2-7.8-0.2-11.7c0-12.3,0.4-24.5,1.4-32.9c0.2-1.6,1.1-3,2.6-3.8
			c1-0.6,2.4-0.9,4-1c4.2-0.2,26,1,29.2,1.3c2.3,0.2,3.7,2.3,4.2,4.6c0.1,0.5,0.2,1.1,0.1,1.6c0,0.8-0.1,1.6-0.4,2.3
			C224.1,103.6,222.6,104.9,220.6,105 M263.7,178.8c-0.6,0.2-1.3,0.3-2,0.3c-3.1,0-6.7-1.9-7.9-3.6c-1.2-1.7-4.1-10.7-10.4-31.6
			l-0.1-0.4c0.1,12.4,1.1,27,1.3,29.1c0.2,2.4-1.4,4.2-4,4.6c-3.3,0.5-7.4-0.9-8.1-3.9c-0.9-3.6-2.2-19.1-3.2-35.1
			c-0.4-7.7-1.3-24.5-0.8-35.9c0.1-1.7,0.2-3.3,0.3-4.7c0-0.6,0.1-1.1,0.2-1.6c0.3-2.3,2.4-3.8,5.8-4c3.8-0.3,9.6,1,10.6,4.6
			c1,3.5,2.5,9.6,4,15.5c1.4,5.7,3.1,12.4,4.6,17.9c0.2-12.4,0.7-25.8,1.8-34.1c0.3-2.5,2.8-4.2,5.8-3.9c2.8,0.3,5.7,2.4,5.5,6.5
			c-0.7,12-0.3,58.7,0.1,74.9C267.2,177.3,264.8,178.5,263.7,178.8 M304.1,165.1c-1.5,4.2-3.3,7.5-5.4,9.9c-2.4,2.8-5.1,4.1-8.1,4.1
			c-3.3,0-6.4-1.3-9.1-4c-2.4-2.3-4.5-5.6-6.2-9.8c-1.6-3.8-2.8-8.3-3.7-13.4c-0.8-4.9-1.2-10-1.2-15.3c0-10.2,1.9-21.3,5-29.5
			c1.7-4.6,3.8-8.2,6.1-10.8c2.7-3,5.8-4.6,9.1-4.6c3.6,0,6.7,1.6,9.3,4.7c2.1,2.6,3.9,6.3,5.3,10.9c2.9,9.9,3.3,21.9,3.3,28.2
			C308.5,146.5,306.9,157.2,304.1,165.1 M350.6,173.4c0.1,3.9-2.3,5.1-3.3,5.5c-0.6,0.2-1.3,0.3-2,0.3c-3.1,0-6.7-1.9-7.9-3.6
			c-1.2-1.7-4.1-10.7-10.4-31.6l-0.1-0.4c0.1,12.4,1.1,27,1.3,29.1c0.2,2.4-1.4,4.2-4,4.6c-3.3,0.5-7.4-0.9-8.1-3.9
			c-0.9-3.6-2.2-19.1-3.2-35.1c-0.5-9.3-1.6-32.1-0.4-42.3c0.3-2.3,2.4-3.8,5.8-4c3.8-0.3,9.6,1,10.6,4.6c1,3.5,2.5,9.6,4,15.5
			c1.4,5.7,3.1,12.4,4.6,17.9c0.2-12.4,0.7-25.8,1.8-34.1c0.3-2.5,2.8-4.2,5.8-3.9c2.8,0.3,5.7,2.4,5.5,6.5
			C349.8,110.5,350.2,157.2,350.6,173.4 M391.1,163.4c-4.2,10.3-10,15.7-16.8,15.7c-2.5,0-5.2-1.2-7.7-3.5c-2.3-2.2-4.5-5.3-6.4-9.1
			c-4.1-8.3-6.3-19.3-6.3-31c0-6.2,0.6-12.1,1.7-17.4c1.1-5.2,2.6-9.8,4.6-13.7c4.2-8.1,10.2-12.6,16.9-12.6c5.9,0,10.7,3.1,13.9,9
			c2.3,4.2,3.6,10,3.6,15.3c0,1.2-0.1,4.3-0.8,7.1c-1.5,5.4-4.6,6.3-6.3,6.3c-4.6,0-5.9-6.4-6.5-12c-0.1-0.6-0.1-1.3-0.2-2.2
			c-0.2-2.6-0.5-6.2-1.2-9.1c-0.7-3-1.3-3.7-1.5-3.9c-0.6,0.2-2.6,2-4.5,9.3c-1.8,6.8-2.9,15.7-2.9,24.5c0,6.5,1.1,14.8,2.8,21.7
			c0.8,3.3,1.7,6.1,2.7,8c0.4,0.9,0.8,1.5,1.1,1.8c0.5-1,1.5-3.8,2.4-11c0.8-6.6,1.2-13.5,1.2-15c0-0.6-0.1-1-0.1-1.2h-2.7
			c-1,0-1.8-0.3-2.4-0.9c-0.6-0.6-0.9-1.3-0.9-2.2c0-1.9,1.7-4.8,3.8-4.8H389c2.3,0,4,0.6,5.3,1.8c1.2,1.1,1.8,2.6,1.8,4.4
			C396.1,145,394.5,155,391.1,163.4 M380.1,128.8h-1.6c-1.4,0-2.8,0.5-3.9,1.3c0.3-5.8,1.1-11.3,2.2-16c0,0.5,0.1,1,0.1,1.5
			c0.1,0.9,0.1,1.7,0.2,2.3C377.5,120.4,378,125.2,380.1,128.8 M374.9,143.6c0.6,0.3,1.3,0.5,2,0.6c-0.1,2.1-0.3,5.3-0.7,8.6
			C375.7,149.8,375.2,146.6,374.9,143.6"/>
		<path d="M56.4,79.6c-0.1,0.3-0.5,0.5-0.7,0.6c-0.3,0.1-0.6,0.3-0.9,0.2c-0.1,0-0.4-0.1-1.3-0.8c-0.3-0.3-0.6-0.5-0.9-0.7
			c0,0.6,0.1,1.9,0.2,2.3c0,0.3-0.2,0.6-0.6,0.7c-0.1,0-0.1,0-0.2,0c-0.4,0-0.8-0.2-1-0.9c-0.6-1.9-1.2-12.1-0.9-15.5
			c0-0.1,0-0.1,0.1-0.1c0.5-0.3,1.4-0.1,2.3,0.4c0.9,0.5,1.7,1.3,2.3,2.2c0.7,1.2,1.1,2.5,1.1,4c0,1.4-0.5,2.8-0.9,3.6
			c-0.4,0.8-0.8,1.5-1.1,1.8c0.1,0.2,0.5,0.4,0.9,0.8c0.5,0.4,1.1,0.8,1.3,1C56.4,79.3,56.5,79.5,56.4,79.6 M52.5,76.2
			c0.6-0.8,1.1-2.4,1.1-4.3c0-1.9-0.5-3.4-1-4C52.5,69.2,52.4,73.9,52.5,76.2"/>
		<path d="M60.1,66.3c-0.6,5.9-0.4,10.5-0.2,14.4c0,0.2-0.1,0.5-0.2,0.6c-0.1,0.1-0.3,0.2-0.6,0.3c0,0-0.1,0-0.1,0
			c-0.2,0-0.4-0.1-0.6-0.2c-0.3-0.2-0.4-0.4-0.5-0.7c-0.5-2.6-0.9-11.2-0.5-14.8c0.1-0.6,0.9-0.9,1.6-0.8c0.3,0,0.6,0.2,0.8,0.3
			C60.1,65.6,60.2,65.9,60.1,66.3"/>
		<path d="M68.7,81c0,0.5-0.5,0.8-1,0.8c-0.6,0.1-1.1-0.2-1.1-0.7c-0.2-1-0.6-3.5-1.1-6.1c-0.5,0-1.1,0-1.6,0
			c-0.3,1.9-0.7,4-0.9,6.2c0,0.4-0.3,0.7-0.7,0.7h0c-0.2,0-0.5-0.1-0.7-0.3c-0.2-0.2-0.3-0.4-0.4-0.7c-0.1-1.3,0.1-4,0.4-7.1
			c0.4-3.1,0.9-6.2,1.4-8.1c0.1-0.4,0.6-0.7,1.3-0.7c0.8,0,1.8,0.3,1.9,0.9C67,68.4,68.6,80.5,68.7,81C68.7,81,68.7,81,68.7,81
			 M65.2,73.5c-0.2-1-0.3-1.9-0.5-2.7c-0.2,0.8-0.4,1.7-0.5,2.7h0.1C64.6,73.5,64.9,73.5,65.2,73.5"/>
		<path d="M76.7,80.9c0,0.6-0.3,0.8-0.5,0.9c-0.1,0-0.2,0.1-0.3,0.1c-0.5,0-1.2-0.3-1.4-0.6c-0.2-0.3-1-2.8-2-6.1
			c-0.2-0.5-0.3-1-0.4-1.4c-0.1,2.5,0.2,6.6,0.3,7.1c0,0.3-0.2,0.6-0.6,0.7c-0.5,0.1-1.2-0.2-1.3-0.6c-0.2-0.7-0.4-3.7-0.6-6.9
			c-0.1-1.8-0.3-6.3-0.1-8.3c0-0.3,0.4-0.6,0.9-0.6c0.7-0.1,1.7,0.2,1.9,0.8c0.2,0.7,0.5,1.8,0.8,3c0.4,1.7,0.9,3.8,1.3,4.9
			c0-2.4,0.1-6.1,0.4-8.1c0-0.4,0.4-0.6,0.9-0.6c0.5,0,0.9,0.4,0.9,1.1C76.5,68.5,76.6,77.7,76.7,80.9"/>
		<path d="M90.2,81c0,0.5-0.5,0.8-1,0.8c-0.6,0.1-1.1-0.2-1.1-0.7c-0.2-1-0.6-3.5-1.1-6.1c-0.5,0-1.1,0-1.6,0
			c-0.3,1.9-0.7,4-0.9,6.2c0,0.4-0.3,0.7-0.7,0.7h0c-0.2,0-0.5-0.1-0.7-0.3c-0.2-0.2-0.3-0.4-0.4-0.7c-0.1-1.3,0.1-4,0.4-7.1
			c0.4-3.1,0.9-6.2,1.4-8.1c0.1-0.4,0.6-0.7,1.3-0.7c0.8,0,1.8,0.3,1.9,0.9C88.5,68.4,90.1,80.5,90.2,81C90.2,81,90.2,81,90.2,81
			 M86.7,73.5c-0.2-1-0.3-1.9-0.5-2.7c-0.2,0.8-0.4,1.7-0.5,2.7h0.1C86.1,73.5,86.4,73.5,86.7,73.5"/>
		<path d="M97.5,75.1c0.6,0.7,0.9,1.5,0.9,2.3c0,0.7-0.2,1.4-0.6,2c-0.3,0.5-0.8,1-1.5,1.4c-0.7,0.4-1.5,0.8-2.2,0.9
			c-0.3,0.1-0.6,0.1-0.9,0.1c-0.4,0-0.8-0.1-1.1-0.2c-0.1,0-0.1-0.1-0.1-0.1c-0.5-3.3-1.1-10.4-0.5-16.2c0-0.1,0-0.1,0.1-0.1
			c0.2-0.1,1-0.1,1.9,0.1c0.8,0.1,2,0.5,2.9,1.2c0.6,0.4,1,0.8,1.3,1.4c0.3,0.6,0.5,1.3,0.5,2c0,0.8-0.3,1.7-0.8,2.5
			c-0.5,0.7-1,1.2-1.7,1.5C96.4,74,97,74.5,97.5,75.1 M94.1,80.1c0.5-0.1,0.9-0.4,1.2-0.9c0.4-0.5,0.6-1.3,0.6-1.9
			c0-1.1-0.7-2.8-2.1-3.3C93.8,76,93.9,78.1,94.1,80.1 M95.7,69.7c0-0.7-0.2-1.4-0.6-2c-0.3-0.4-0.6-0.8-1-1
			c-0.1,2.1-0.3,4.3-0.3,6.5C94.8,72.5,95.7,71.4,95.7,69.7"/>
		<path d="M105.9,68c0.6,1.9,0.6,4.3,0.6,5.5c0,2.1-0.3,4.2-0.9,5.7c-0.3,0.8-0.6,1.4-1,1.9c-0.4,0.5-0.9,0.7-1.4,0.7
			c-0.6,0-1.2-0.2-1.6-0.7c-0.4-0.4-0.8-1.1-1.2-1.8c-0.3-0.7-0.5-1.6-0.7-2.6c-0.2-0.9-0.2-1.9-0.2-3c0-2,0.4-4.1,1-5.7
			c0.3-0.9,0.7-1.6,1.2-2.1c0.5-0.6,1-0.8,1.6-0.8c0.6,0,1.2,0.3,1.7,0.9C105.3,66.4,105.7,67.1,105.9,68 M104.2,77.4
			c0.3-1.2,0.4-2.7,0.4-4.2c0-2.2-0.2-3.5-0.3-4.2c-0.2-1.1-0.5-1.3-0.6-1.3c-0.2,0-0.6,0.6-0.9,1.9c-0.3,1.3-0.5,2.8-0.5,4.4
			c0,1.8,0.2,3.1,0.5,3.8c0.3,1,0.6,1.4,0.6,1.4C103.6,79.1,104,78.7,104.2,77.4"/>
		<path d="M113.9,79.6c-0.1,0.3-0.5,0.5-0.7,0.6c-0.3,0.1-0.6,0.3-0.9,0.2c-0.1,0-0.4-0.1-1.3-0.8c-0.3-0.3-0.6-0.5-0.9-0.7
			c0,0.6,0.1,1.9,0.2,2.3c0,0.3-0.2,0.6-0.6,0.7c-0.1,0-0.1,0-0.2,0c-0.4,0-0.8-0.2-1-0.9c-0.6-1.9-1.2-12.1-0.9-15.5
			c0-0.1,0-0.1,0.1-0.1c0.5-0.3,1.4-0.1,2.3,0.4c0.9,0.5,1.7,1.3,2.3,2.2c0.7,1.2,1.1,2.5,1.1,4c0,1.4-0.5,2.8-0.9,3.6
			c-0.4,0.8-0.8,1.5-1.1,1.8c0.1,0.2,0.5,0.4,0.9,0.8c0.5,0.4,1.1,0.8,1.3,1C113.9,79.3,114,79.5,113.9,79.6 M110.1,76.2
			c0.6-0.8,1.1-2.4,1.1-4.3c0-1.9-0.5-3.4-1-4C110,69.2,110,73.9,110.1,76.2"/>
		<path d="M117.6,66.3c-0.6,5.9-0.4,10.5-0.2,14.4c0,0.2-0.1,0.5-0.2,0.6c-0.1,0.1-0.3,0.2-0.6,0.3c0,0-0.1,0-0.1,0
			c-0.2,0-0.4-0.1-0.6-0.2c-0.3-0.2-0.4-0.4-0.5-0.7c-0.5-2.6-0.9-11.2-0.5-14.8c0.1-0.6,0.9-0.9,1.6-0.8c0.3,0,0.6,0.2,0.8,0.3
			C117.6,65.6,117.7,65.9,117.6,66.3"/>
		<path d="M126.3,73.4c0.2,0.2,0.3,0.4,0.3,0.7c0,1.2-0.3,3.1-1,4.8c-0.8,1.9-1.9,3-3.1,3c-0.4,0-0.9-0.2-1.4-0.6
			c-0.4-0.4-0.9-1-1.2-1.7c-0.8-1.6-1.2-3.7-1.2-6c0-1.2,0.1-2.3,0.3-3.4c0.2-1,0.5-1.9,0.9-2.6c0.8-1.5,1.9-2.4,3.1-2.4
			c1.1,0,2,0.6,2.5,1.7c0.4,0.8,0.7,1.9,0.7,2.9c0,0.2,0,0.8-0.2,1.3c-0.2,0.9-0.7,1.1-1,1.1c-0.7,0-1-1.2-1.1-2.2
			c0-0.1,0-0.3,0-0.4c0-0.5-0.1-1.2-0.2-1.8c-0.2-0.8-0.4-0.9-0.5-0.9c-0.3,0-0.7,0.5-1.1,2c-0.4,1.4-0.6,3.1-0.6,4.9
			c0,1.3,0.2,2.9,0.6,4.3c0.2,0.7,0.4,1.2,0.5,1.6c0.3,0.5,0.4,0.6,0.4,0.6c0,0,0.3-0.1,0.6-2.4c0.2-1.3,0.2-2.7,0.2-3
			c0-0.2,0-0.4-0.2-0.4h-0.6c-0.1,0-0.2,0-0.3-0.1c-0.1-0.1-0.1-0.2-0.1-0.3c0-0.3,0.3-0.7,0.5-0.7h2.1
			C125.8,73.1,126.1,73.2,126.3,73.4"/>
		<path d="M130.6,66.3c-0.6,5.9-0.4,10.5-0.2,14.4c0,0.2-0.1,0.5-0.2,0.6c-0.1,0.1-0.3,0.2-0.6,0.3c0,0-0.1,0-0.1,0
			c-0.2,0-0.4-0.1-0.6-0.2c-0.3-0.2-0.4-0.4-0.5-0.7c-0.5-2.6-0.9-11.2-0.5-14.8c0.1-0.6,0.9-0.9,1.6-0.8c0.3,0,0.6,0.2,0.8,0.3
			C130.5,65.6,130.6,65.9,130.6,66.3"/>
		<path d="M138.8,80.9c0,0.6-0.3,0.8-0.5,0.9c-0.1,0-0.2,0.1-0.3,0.1c-0.5,0-1.2-0.3-1.4-0.6c-0.2-0.3-1-2.8-2-6.1
			c-0.2-0.5-0.3-1-0.4-1.4c-0.1,2.5,0.2,6.6,0.3,7.1c0,0.3-0.2,0.6-0.6,0.7c-0.5,0.1-1.2-0.2-1.3-0.6c-0.2-0.7-0.4-3.7-0.6-6.9
			c-0.1-1.8-0.3-6.3-0.1-8.3c0-0.3,0.4-0.6,0.9-0.6c0.7-0.1,1.7,0.2,1.9,0.8c0.2,0.7,0.5,1.8,0.8,3c0.4,1.7,0.9,3.8,1.3,4.9
			c0-2.4,0.1-6.1,0.4-8.1c0-0.4,0.4-0.6,0.9-0.6c0.5,0,0.9,0.4,0.9,1.1C138.7,68.5,138.8,77.7,138.8,80.9"/>
		<path d="M147.4,81c0,0.5-0.5,0.8-1,0.8c-0.6,0.1-1.1-0.2-1.2-0.7c-0.2-1-0.6-3.5-1.1-6.1c-0.5,0-1.1,0-1.6,0
			c-0.3,1.9-0.7,4-0.9,6.2c0,0.4-0.3,0.7-0.7,0.7h0c-0.2,0-0.5-0.1-0.7-0.3c-0.2-0.2-0.3-0.4-0.4-0.7c-0.1-1.3,0.1-4,0.4-7.1
			c0.4-3.1,0.9-6.2,1.4-8.1c0.1-0.4,0.6-0.7,1.3-0.7c0.8,0,1.8,0.3,1.9,0.9C145.7,68.4,147.3,80.5,147.4,81
			C147.4,81,147.4,81,147.4,81 M143.9,73.5c-0.2-1-0.3-1.9-0.5-2.7c-0.2,0.8-0.4,1.7-0.5,2.7h0.1C143.3,73.5,143.6,73.5,143.9,73.5"
			/>
		<path d="M155.6,80.9c0,0.3-0.2,0.6-0.7,0.7c-1.1,0.2-3.6,0.2-3.6,0.2c-0.8,0-1.4-0.1-1.8-0.4c-0.4-0.3-0.6-0.7-0.7-1.3
			c-0.2-1.3-0.5-3.9-0.6-6.7c-0.2-3.2-0.2-5.9,0-7.6c0-0.5,0.6-0.8,1.3-0.7c0.4,0,0.7,0.2,1,0.4c0.3,0.2,0.5,0.6,0.5,0.9v0
			c-0.1,1.3-0.2,4.3-0.2,7.4c0,3.7,0.1,5.5,0.2,5.8c0.2,0.4,1.1,0.4,2.1,0.5c0.5,0,1.1,0.1,1.7,0.1
			C155.3,80.2,155.6,80.5,155.6,80.9"/>
		<path d="M168.4,66.5c0.2,4.1,0.1,7.2-0.2,9.5c-0.3,2.4-0.9,4-1.8,4.9c-0.6,0.6-1.2,0.9-2,0.9c-0.9,0-1.6-0.5-2.1-1.4
			c-0.4-0.8-0.6-2-0.6-3.6c0-0.5,0.3-0.8,0.7-0.8c0.2,0,0.3,0.1,0.5,0.2c0.1,0.2,0.2,0.4,0.2,0.6c0,0.1,0,1.1,0.2,2
			c0.1,0.7,0.4,1.6,0.9,1.6c0.2,0,0.4-0.1,0.5-0.3c0.4-0.4,0.8-1.4,1-4c0.2-2.3,0.1-5.4-0.2-9.1c-0.5,0-1,0-1.6,0
			c-0.5,0-1,0.1-1.4,0.1c-0.5,0-0.9-0.2-0.9-0.6c0-0.4,0.2-0.8,0.5-0.9c0.4-0.1,2.3-0.4,4.1-0.5c0.3,0,1.3-0.1,1.8,0.4
			C168.2,65.8,168.4,66.1,168.4,66.5"/>
		<path d="M177.3,66.6c0.1,1.1,0.2,4.1,0,7.1c-0.2,3.8-0.9,6.3-2,7.5c-0.4,0.5-1,0.7-1.5,0.7c-0.9,0-1.6-0.3-2.1-1
			c-0.5-0.5-0.8-1.3-1.2-2.4c-0.4-1.2-0.7-3.1-0.8-5.3c-0.1-2.1,0-4.3,0.2-6.1c0.1-0.4,0.5-0.7,1.2-0.6c0.3,0,0.7,0.1,1,0.3
			c0.3,0.2,0.5,0.4,0.5,0.7c-0.2,2.1-0.2,4.9,0,7.4c0.2,2.8,0.6,4.7,1,5.2c0.1,0.1,0.1,0.1,0.2,0.1c0.2,0,0.5-0.2,0.8-1.3
			c0.2-0.8,0.5-2,0.6-3.5c0.3-2.6,0.5-6.1,0.5-9.6c0-0.2,0.1-0.4,0.3-0.5c0.3-0.2,0.7-0.1,1,0.1c0.3,0.2,0.5,0.4,0.5,0.7
			C177.3,66.1,177.3,66.3,177.3,66.6"/>
		<path d="M185.6,80.9c0,0.6-0.3,0.8-0.5,0.9c-0.1,0-0.2,0.1-0.3,0.1c-0.5,0-1.2-0.3-1.4-0.6c-0.2-0.3-1-2.8-2-6.1
			c-0.2-0.5-0.3-1-0.4-1.4c-0.1,2.5,0.2,6.6,0.3,7.1c0,0.3-0.2,0.6-0.6,0.7c-0.5,0.1-1.2-0.2-1.3-0.6c-0.2-0.7-0.4-3.7-0.6-6.9
			c-0.1-1.8-0.3-6.3-0.1-8.3c0-0.3,0.4-0.6,0.9-0.6c0.7-0.1,1.7,0.2,1.9,0.8c0.2,0.7,0.5,1.8,0.8,3c0.4,1.7,0.9,3.8,1.3,4.9
			c0-2.4,0.1-6.1,0.4-8.1c0-0.4,0.4-0.6,0.9-0.6c0.5,0,0.9,0.4,0.9,1.1C185.5,68.5,185.6,77.7,185.6,80.9"/>
		<path d="M189.6,66.3c-0.6,5.9-0.4,10.5-0.2,14.4c0,0.2-0.1,0.5-0.2,0.6c-0.1,0.1-0.3,0.2-0.6,0.3c0,0-0.1,0-0.1,0
			c-0.2,0-0.4-0.1-0.6-0.2c-0.3-0.2-0.4-0.4-0.5-0.7c-0.5-2.6-0.9-11.2-0.5-14.8c0.1-0.6,0.9-0.9,1.6-0.8c0.3,0,0.6,0.2,0.8,0.3
			C189.5,65.6,189.6,65.9,189.6,66.3"/>
		<path d="M197.1,68c0.6,1.9,0.6,4.3,0.6,5.5c0,2.1-0.3,4.2-0.9,5.7c-0.3,0.8-0.6,1.4-1,1.9c-0.4,0.5-0.9,0.7-1.4,0.7
			c-0.6,0-1.2-0.2-1.6-0.7c-0.4-0.4-0.8-1.1-1.2-1.8c-0.3-0.7-0.5-1.6-0.7-2.6c-0.2-0.9-0.2-1.9-0.2-3c0-2,0.4-4.1,1-5.7
			c0.3-0.9,0.7-1.6,1.2-2.1c0.5-0.6,1-0.8,1.6-0.8c0.6,0,1.2,0.3,1.7,0.9C196.5,66.4,196.9,67.1,197.1,68 M195.5,77.4
			c0.3-1.2,0.4-2.7,0.4-4.2c0-2.2-0.2-3.5-0.3-4.2c-0.2-1.1-0.5-1.3-0.6-1.3c-0.2,0-0.6,0.6-0.9,1.9c-0.3,1.3-0.5,2.8-0.5,4.4
			c0,1.8,0.2,3.1,0.5,3.8c0.3,1,0.6,1.4,0.6,1.4C194.8,79.1,195.2,78.7,195.5,77.4"/>
		<path d="M205.1,79.6c-0.1,0.3-0.5,0.5-0.7,0.6c-0.3,0.1-0.6,0.3-0.9,0.2c-0.1,0-0.4-0.1-1.3-0.8c-0.3-0.3-0.6-0.5-0.9-0.7
			c0,0.6,0.1,1.9,0.2,2.3c0,0.3-0.2,0.6-0.6,0.7c-0.1,0-0.1,0-0.2,0c-0.4,0-0.8-0.2-1-0.9c-0.6-1.9-1.2-12.1-0.9-15.5
			c0-0.1,0-0.1,0.1-0.1c0.5-0.3,1.4-0.1,2.3,0.4c0.9,0.5,1.7,1.3,2.3,2.2c0.7,1.2,1.1,2.5,1.1,4c0,1.4-0.5,2.8-0.9,3.6
			c-0.4,0.8-0.8,1.5-1.1,1.8c0.1,0.2,0.5,0.4,0.9,0.8c0.5,0.4,1.1,0.8,1.3,1C205.1,79.3,205.2,79.5,205.1,79.6 M201.3,76.2
			c0.6-0.8,1.1-2.4,1.1-4.3c0-1.9-0.5-3.4-1-4C201.3,69.2,201.2,73.9,201.3,76.2"/>
		<path d="M217.4,75.1c0.6,0.7,0.9,1.5,0.9,2.3c0,0.7-0.2,1.4-0.6,2c-0.3,0.5-0.8,1-1.5,1.4c-0.7,0.4-1.5,0.8-2.2,0.9
			c-0.3,0.1-0.6,0.1-0.9,0.1c-0.4,0-0.8-0.1-1.1-0.2c-0.1,0-0.1-0.1-0.1-0.1c-0.5-3.3-1.1-10.4-0.5-16.2c0-0.1,0-0.1,0.1-0.1
			c0.2-0.1,1-0.1,1.9,0.1c0.8,0.1,2,0.5,2.9,1.2c0.6,0.4,1,0.8,1.3,1.4c0.3,0.6,0.5,1.3,0.5,2c0,0.8-0.3,1.7-0.8,2.5
			c-0.5,0.7-1,1.2-1.7,1.5C216.3,74,216.9,74.5,217.4,75.1 M214,80.1c0.5-0.1,0.9-0.4,1.2-0.9c0.4-0.5,0.6-1.3,0.6-1.9
			c0-1.1-0.7-2.8-2.1-3.3C213.7,76,213.8,78.1,214,80.1 M215.6,69.7c0-0.7-0.2-1.4-0.6-2c-0.3-0.4-0.6-0.8-1-1
			c-0.1,2.1-0.3,4.3-0.3,6.5C214.7,72.5,215.6,71.4,215.6,69.7"/>
		<path d="M226.9,81c0,0.5-0.5,0.8-1,0.8c-0.6,0.1-1.1-0.2-1.1-0.7c-0.2-1-0.6-3.5-1.1-6.1c-0.5,0-1.1,0-1.6,0
			c-0.3,1.9-0.7,4-0.9,6.2c0,0.4-0.3,0.7-0.7,0.7h0c-0.2,0-0.5-0.1-0.7-0.3c-0.2-0.2-0.3-0.4-0.4-0.7c-0.1-1.3,0.1-4,0.4-7.1
			c0.4-3.1,0.9-6.2,1.4-8.1c0.1-0.4,0.6-0.7,1.3-0.7c0.8,0,1.8,0.3,1.9,0.9C225.2,68.4,226.8,80.5,226.9,81
			C226.9,81,226.9,81,226.9,81 M223.4,73.5c-0.2-1-0.3-1.9-0.5-2.7c-0.2,0.8-0.4,1.7-0.5,2.7h0.1C222.8,73.5,223.1,73.5,223.4,73.5"
			/>
		<path d="M231.5,67.5c-0.3,0.6-0.5,1.3-0.5,2.1c0,1,0.8,1.7,1.7,2.6c0.6,0.6,1.3,1.2,1.8,1.9c0.6,0.9,0.9,1.8,0.9,2.9
			c0,1.2-0.4,2.4-1,3.3c-0.7,1-1.7,1.6-2.7,1.6c-0.7,0-1.3-0.2-1.9-0.6c-0.4-0.3-0.8-0.8-1.1-1.3c-0.5-0.9-0.7-2-0.7-2.5
			c0-0.5,0.3-0.8,0.6-0.9c0.3,0,0.7,0.2,0.9,0.9c0.4,1.7,1,2.5,1.8,2.5c0.3,0,0.6-0.2,0.9-0.7c0.2-0.4,0.5-1,0.5-2
			c0-1.8-1-2.8-2.1-3.8c-1.1-1.1-2.2-2.2-2.2-4.2c0-0.5,0.1-1,0.2-1.5c0.2-0.5,0.4-1,0.7-1.4c0.7-0.9,1.7-1.3,2.9-1.3
			c1.1,0,2,0.6,2.6,1.7c0.5,0.9,0.6,1.9,0.6,2.3c0,0.4-0.1,0.7-0.3,0.9c-0.2,0.2-0.4,0.3-0.7,0.3c-0.3,0-0.6-0.1-0.9-0.3
			c-0.3-0.2-0.5-0.5-0.5-0.7c0-0.4-0.1-1-0.2-1.6c-0.1-0.6-0.3-0.9-0.5-0.9C232.1,66.8,231.8,67.1,231.5,67.5"/>
		<path d="M243.9,67c0.1,0.2,0.1,0.5,0,0.7c-0.9,1.8-2.5,5-4.4,6.7c0.9,1.6,2.7,3.7,4.1,5c0.3,0.3,0.3,0.7,0,1.1
			c-0.2,0.3-0.5,0.5-0.8,0.5c-0.1,0-0.1,0-0.2-0.1c-1-0.6-1.9-1.5-2.5-2.2c-0.5-0.6-0.9-1.1-1.2-1.6c0,1.1,0.1,2.3,0.2,3.5
			c0,0.2-0.1,0.5-0.2,0.6c-0.1,0.1-0.3,0.2-0.6,0.3c0,0-0.1,0-0.1,0c-0.2,0-0.4-0.1-0.6-0.2c-0.3-0.2-0.4-0.4-0.5-0.7
			c-0.5-2.6-0.9-11.2-0.5-14.8c0.1-0.6,0.9-0.9,1.6-0.8c0.3,0,0.6,0.2,0.8,0.3c0.2,0.2,0.3,0.5,0.3,0.8c-0.2,1.9-0.3,3.7-0.4,5.5
			c1-0.9,2.4-2.8,3.6-5c0.2-0.3,0.5-0.3,0.9-0.1C243.6,66.7,243.8,66.9,243.9,67"/>
		<path d="M248.1,67.4c-0.1,1.2-0.2,3.4-0.3,5.7c0.5,0,1,0,1.6,0c0.7,0,1.4,0,1.7,0c0.4,0,0.6,0.2,0.6,0.4c0,0.3-0.3,0.8-0.7,0.8
			c-0.1,0-0.5,0-1,0c-0.5,0-1.2,0-1.8,0c-0.2,0-0.3,0-0.4,0c-0.1,3.5,0,5,0.1,5.2c0.1,0.1,0.3,0.3,0.7,0.3c0.4,0.1,1,0.1,1.5,0.1
			c0.6,0,1.2,0.1,1.8,0.1c0.5,0.1,0.8,0.4,0.8,0.7c0,0.3-0.2,0.6-0.7,0.7c-1.1,0.2-3.6,0.2-3.6,0.2c-0.8,0-1.5-0.2-2-0.5
			c-0.5-0.3-0.8-0.8-0.9-1.4c-0.5-2.5-0.6-10.3-0.2-14.1c0-0.3,0.2-0.5,0.4-0.6c0.2-0.1,0.4-0.2,0.7-0.2c0.8,0,5.1,0.2,5.7,0.3
			c0.4,0,0.7,0.6,0.7,1c0,0.5-0.3,0.9-0.7,0.9C251.2,67.3,248.8,67.4,248.1,67.4"/>
		<path d="M263.3,65.7c0,0.4-0.2,1.1-0.5,1.1c-0.7,0.1-1.5,0.1-2.1,0.1c-0.2,0-0.5,0-0.6,0c-0.5,5.4-0.3,10-0.1,13.8
			c0,0.2-0.1,0.5-0.2,0.6c-0.1,0.1-0.3,0.2-0.6,0.3c0,0-0.1,0-0.1,0c-0.2,0-0.4-0.1-0.6-0.2c-0.3-0.2-0.4-0.4-0.5-0.7
			c-0.5-2.4-0.8-9.9-0.6-13.9c-0.2,0-0.4,0-0.6,0c-0.7,0-1.6,0-2.1,0c-0.4,0-0.7-0.4-0.7-0.8c0-0.4,0.2-0.6,0.6-0.7
			c0.7-0.1,3-0.3,4.2-0.3c1.1,0,3.6,0.1,4.2,0.1C263,65.2,263.2,65.3,263.3,65.7"/>
	</g>
	<path d="M270.5,75.1c0.6,0.7,0.9,1.5,0.9,2.3c0,0.7-0.2,1.4-0.6,2c-0.3,0.5-0.8,1-1.5,1.4c-0.7,0.4-1.5,0.8-2.2,0.9
		c-0.3,0.1-0.6,0.1-0.9,0.1c-0.4,0-0.8-0.1-1.1-0.2c-0.1,0-0.1-0.1-0.1-0.1c-0.5-3.3-1.1-10.4-0.5-16.2c0-0.1,0-0.1,0.1-0.1
		c0.2-0.1,1-0.1,1.9,0.1c0.8,0.1,2,0.5,2.9,1.2c0.6,0.4,1,0.8,1.3,1.4c0.3,0.6,0.5,1.3,0.5,2c0,0.8-0.3,1.7-0.8,2.5
		c-0.5,0.7-1,1.2-1.7,1.5C269.5,74,270.1,74.5,270.5,75.1 M267.1,80.1c0.5-0.1,0.9-0.4,1.2-0.9c0.4-0.5,0.6-1.3,0.6-1.9
		c0-1.1-0.7-2.8-2.1-3.3C266.8,76,266.9,78.1,267.1,80.1 M268.7,69.7c0-0.7-0.2-1.4-0.6-2c-0.3-0.4-0.6-0.8-1-1
		c-0.1,2.1-0.3,4.3-0.3,6.5C267.8,72.5,268.7,71.4,268.7,69.7"/>
	<path d="M280,81c0,0.5-0.5,0.8-1,0.8c-0.6,0.1-1.1-0.2-1.1-0.7c-0.2-1-0.6-3.5-1.1-6.1c-0.5,0-1.1,0-1.6,0c-0.3,1.9-0.7,4-0.9,6.2
		c0,0.4-0.3,0.7-0.7,0.7h0c-0.2,0-0.5-0.1-0.7-0.3c-0.2-0.2-0.3-0.4-0.4-0.7c-0.1-1.3,0.1-4,0.4-7.1c0.4-3.1,0.9-6.2,1.4-8.1
		c0.1-0.4,0.6-0.7,1.3-0.7c0.8,0,1.8,0.3,1.9,0.9C278.4,68.4,280,80.5,280,81L280,81z M276.5,73.5c-0.2-1-0.3-1.9-0.5-2.7
		c-0.2,0.8-0.4,1.7-0.5,2.7h0.1C275.9,73.5,276.2,73.5,276.5,73.5"/>
	<path d="M288.2,80.9c0,0.3-0.2,0.6-0.7,0.7c-1.1,0.2-3.6,0.2-3.6,0.2c-0.8,0-1.4-0.1-1.8-0.4c-0.4-0.3-0.6-0.7-0.7-1.3
		c-0.2-1.3-0.5-3.9-0.6-6.7c-0.2-3.2-0.2-5.9,0-7.6c0.1-0.5,0.6-0.8,1.3-0.7c0.4,0,0.7,0.2,1,0.4c0.3,0.2,0.5,0.6,0.5,0.9v0
		c-0.1,1.3-0.2,4.3-0.2,7.4c0,3.7,0.1,5.5,0.2,5.8c0.2,0.4,1.1,0.4,2.1,0.5c0.5,0,1.1,0.1,1.7,0.1C287.9,80.2,288.2,80.5,288.2,80.9
		"/>
	<path d="M296.1,80.9c0,0.3-0.2,0.6-0.7,0.7c-1.1,0.2-3.6,0.2-3.6,0.2c-0.8,0-1.4-0.1-1.8-0.4c-0.4-0.3-0.6-0.7-0.7-1.3
		c-0.2-1.3-0.5-3.9-0.6-6.7c-0.2-3.2-0.2-5.9,0-7.6c0.1-0.5,0.6-0.8,1.3-0.7c0.4,0,0.7,0.2,1,0.4c0.3,0.2,0.5,0.6,0.5,0.9v0
		c-0.1,1.3-0.2,4.3-0.2,7.4c0,3.7,0.1,5.5,0.2,5.8c0.2,0.4,1.1,0.4,2.1,0.5c0.5,0,1.1,0.1,1.7,0.1C295.8,80.2,296.1,80.5,296.1,80.9
		"/>
</g>
<g>
	<path d="M23,199.1c0.2,5.8,0.2,10.3-0.3,13.6c-0.4,3.4-1.3,5.7-2.5,7c-0.8,0.8-1.8,1.2-2.9,1.2c-1.3,0-2.3-0.7-3-2
		c-0.6-1.2-0.8-2.9-0.8-5.2c0-0.7,0.5-1.2,1-1.2c0.3,0,0.5,0.1,0.7,0.3c0.2,0.2,0.3,0.5,0.3,0.9c0,0.2,0,1.6,0.3,2.9
		c0.2,1,0.6,2.2,1.3,2.2c0.3,0,0.5-0.1,0.8-0.4c0.5-0.6,1.2-2,1.5-5.7c0.3-3.3,0.2-7.7-0.3-13.1c-0.7,0-1.5,0-2.3,0.1
		c-0.7,0-1.4,0.1-2.1,0.1c-0.7,0-1.2-0.3-1.3-0.9c-0.1-0.5,0.3-1.1,0.7-1.2c0.5-0.1,3.3-0.6,5.9-0.7c0.4,0,1.8-0.1,2.6,0.6
		C22.8,198.1,23,198.5,23,199.1z"/>
	<path d="M35.7,199.2c0.1,1.6,0.3,5.9,0,10.2c-0.3,5.4-1.3,9-2.8,10.6c-0.6,0.7-1.4,1-2.2,1c-1.3,0-2.2-0.5-3-1.4
		c-0.6-0.8-1.2-1.8-1.7-3.5c-0.6-1.7-1-4.4-1.2-7.5c-0.2-3-0.1-6.1,0.2-8.6c0.1-0.6,0.8-1,1.8-0.9c0.5,0.1,1,0.2,1.4,0.4
		c0.5,0.3,0.7,0.6,0.7,0.9c-0.3,3-0.3,7-0.1,10.6c0.3,4,0.8,6.7,1.5,7.4c0.1,0.1,0.2,0.2,0.3,0.2c0.2,0,0.7-0.2,1.1-1.8
		c0.3-1.2,0.6-2.9,0.9-5c0.4-3.7,0.6-8.6,0.6-13.6c0-0.3,0.1-0.6,0.4-0.7c0.4-0.2,1-0.1,1.4,0.2c0.4,0.3,0.7,0.6,0.7,1
		C35.7,198.6,35.7,198.9,35.7,199.2z"/>
	<path d="M47.6,219.7c0,0.9-0.4,1.1-0.7,1.2c-0.1,0-0.3,0.1-0.5,0.1c-0.8,0-1.7-0.5-2-0.9c-0.3-0.5-1.4-3.9-2.9-8.8
		c-0.2-0.7-0.4-1.4-0.6-2c-0.1,3.6,0.3,9.4,0.4,10.2c0,0.5-0.3,0.9-0.9,1c-0.8,0.1-1.8-0.2-1.9-0.9c-0.2-1-0.6-5.3-0.9-9.8
		c-0.1-2.6-0.5-9-0.1-11.8c0.1-0.5,0.5-0.8,1.3-0.9c1-0.1,2.4,0.3,2.7,1.1c0.3,1,0.7,2.6,1.1,4.3c0.6,2.4,1.3,5.4,1.8,7
		c0-3.4,0.1-8.7,0.5-11.6c0.1-0.5,0.6-0.9,1.3-0.8c0.7,0.1,1.3,0.6,1.3,1.5C47.4,202,47.5,215.2,47.6,219.7z"/>
	<path d="M53.4,200.4c-0.1,1.7-0.3,4.9-0.4,8.2c0.7,0,1.5,0,2.3,0c1,0,2,0,2.5,0c0.6,0,0.8,0.3,0.9,0.6c0,0.5-0.4,1.1-1,1.1
		c-0.2,0-0.7,0-1.4,0c-0.8,0-1.8,0-2.6,0c-0.2,0-0.4,0-0.6,0c-0.1,5,0,7.1,0.2,7.4c0.1,0.2,0.4,0.4,1,0.5c0.6,0.1,1.4,0.1,2.2,0.2
		c0.8,0,1.7,0.1,2.6,0.2c0.7,0.1,1.1,0.6,1.1,1.1c0,0.4-0.2,0.9-1,1c-1.6,0.3-5.1,0.3-5.2,0.3c-1.1,0-2.1-0.3-2.8-0.8
		c-0.7-0.5-1.2-1.2-1.3-1.9c-0.6-3.5-0.9-14.7-0.2-20c0-0.4,0.2-0.6,0.6-0.8c0.3-0.1,0.6-0.2,1-0.2c1.2,0,7.3,0.3,8.1,0.4
		c0.6,0.1,0.9,0.8,0.9,1.5c0,0.7-0.4,1.2-1,1.3C57.9,200.3,54.4,200.4,53.4,200.4z"/>
	<path d="M75.8,211.1c-1.4,2.7-3,5.1-3.5,6c1.4,0.1,4.2,0.4,4.6,0.4c0.3,0,0.5,0.3,0.6,0.4c0.2,0.2,0.3,0.5,0.3,0.8
		c0,0.2-0.1,0.4-0.2,0.5c-0.2,0.1-0.4,0.2-0.7,0.2h-6.2c-0.3,0-1.4-0.1-1.8-0.8c-0.1-0.2-0.2-0.6,0.1-1.1c0,0,0.1-0.1,0.1-0.2
		c3.6-6.4,5.6-11.5,5.6-14.3c0-1.1-0.1-1.9-0.4-2.4c-0.2-0.4-0.5-0.6-0.9-0.6c-0.4,0-0.8,0.2-1.2,0.7c-0.4,0.5-0.8,1.2-1.1,2.2
		c-0.4,1.3-1.1,1.2-1.3,1.2c-0.3-0.1-0.5-0.2-0.7-0.6c-0.2-0.3-0.2-0.7-0.2-1.1c0-0.4,0.1-0.9,0.2-1.5c0.1-0.6,0.4-1.1,0.7-1.7
		c0.8-1.4,2-2.2,3.5-2.2c0.9,0,1.7,0.2,2.4,0.5c0.7,0.3,1.2,0.7,1.7,1.3c0.8,1,1.2,2.4,1.2,4.1C78.5,204.9,77.6,207.6,75.8,211.1z"
		/>
	<path d="M90,204.1c0,2.7-0.8,5.7-2.3,8.9c-1.2,2.6-2.5,4.6-3.1,5.4c-0.1,0.1-0.2,0.3-0.2,0.3c0,0,0,0,0,0c-0.2,0.3-0.6,0.4-1,0.5
		c-0.1,0-0.3,0-0.4,0c-0.3,0-0.5-0.1-0.7-0.2c-0.2-0.2-0.5-0.5-0.1-1.4c0.4-0.7,1.4-2.8,2.3-5.3c0.3-0.9,0.6-1.8,0.9-2.7
		c-0.3,0.1-0.5,0.1-0.8,0.1c-0.8,0-1.6-0.2-2.2-0.6c-0.6-0.4-1-0.9-1.4-1.5c-0.6-1.1-1-2.6-1-4.2c0-1.7,0.4-3.2,1.2-4.4
		c0.9-1.3,2.2-2,3.8-2c0.7,0,1.3,0.2,1.9,0.6c0.6,0.3,1.1,0.8,1.6,1.5C89.5,200.6,90,202.3,90,204.1z M86,207.1
		c0.2-1.1,0.3-2.2,0.3-3.1c0-1.3-0.2-2.4-0.5-3c-0.3-0.5-0.6-0.8-1-0.8c-0.4,0-1,0.4-1.4,1c-0.5,0.7-0.8,1.7-0.8,2.7
		c0,1,0.2,2,0.4,2.7c0.4,0.9,0.9,1.4,1.6,1.4C85.2,207.9,85.7,207.6,86,207.1z"/>
	<path d="M104.9,198c0,0.5-0.2,1.5-0.7,1.6c-1,0.1-2.2,0.1-3.1,0.1c-0.3,0-0.7,0-0.9,0c-0.7,7.7-0.5,14.2-0.1,19.7
		c0,0.3-0.1,0.7-0.3,0.9c-0.2,0.2-0.5,0.3-0.8,0.4c-0.1,0-0.1,0-0.2,0c-0.3,0-0.6-0.1-0.9-0.2c-0.4-0.2-0.6-0.5-0.7-1
		c-0.6-3.4-1.2-14.1-0.8-19.8c-0.2,0-0.5,0-0.8,0c-1,0-2.3,0.1-3,0c-0.6,0-1-0.6-1-1.2c0-0.5,0.3-0.9,0.8-1c1-0.1,4.3-0.4,6-0.4
		c1.6,0,5.1,0.1,6.1,0.1C104.6,197.3,104.9,197.4,104.9,198z"/>
	<path d="M117.8,198.8c-0.9,8.4-0.6,15-0.3,20.6c0,0.3-0.1,0.7-0.3,0.9c-0.2,0.2-0.5,0.3-0.8,0.4c-0.1,0-0.1,0-0.2,0
		c-0.3,0-0.6-0.1-0.9-0.2c-0.4-0.2-0.6-0.5-0.7-1c-0.3-1.7-0.6-5.3-0.8-9.1c-0.2,0-0.4,0-0.6,0c-0.8,0-1.8,0-2.6,0
		c-0.3,0-0.5,0-0.7,0c0,3.3,0.2,6.3,0.3,9.1c0,0.3-0.1,0.7-0.3,0.9c-0.2,0.2-0.5,0.3-0.8,0.4c-0.1,0-0.1,0-0.2,0
		c-0.3,0-0.6-0.1-0.9-0.2c-0.4-0.2-0.6-0.5-0.7-1c-0.7-3.7-1.3-16-0.7-21.2c0.1-0.8,1.3-1.3,2.3-1.2c0.5,0.1,0.9,0.2,1.1,0.5
		c0.3,0.3,0.5,0.7,0.4,1.2c-0.4,3.5-0.6,6.8-0.6,9.7c0.7,0,1.5,0,2.4,0c0.5,0,1,0,1.4,0c-0.1-3.9-0.1-7.9,0.2-10.3
		c0.1-0.8,1.3-1.3,2.3-1.2c0.5,0.1,0.9,0.2,1.1,0.5C117.7,197.9,117.9,198.3,117.8,198.8z"/>
	<path d="M121.8,217.9c0,0.1,0,0.1,0,0.2c0,0.6-0.2,1.3-0.5,1.8c-0.3,0.6-0.7,0.9-1.1,0.9c-0.1,0-0.2,0-0.2-0.1
		c-0.1-0.1-0.1-0.2,0-0.4c0.1-0.3,0.2-0.9-0.2-1.4c-0.3-0.2-0.4-0.6-0.4-1c0-0.7,0.5-1.3,1.2-1.3c0.6,0,1.2,0.5,1.2,1.2c0,0,0,0,0,0
		C121.8,217.8,121.8,217.9,121.8,217.9z"/>
	<path d="M140.1,199.1c0.2,5.8,0.2,10.3-0.3,13.6c-0.4,3.4-1.3,5.7-2.5,7c-0.8,0.8-1.8,1.2-2.9,1.2c-1.3,0-2.3-0.7-3-2
		c-0.6-1.2-0.8-2.9-0.8-5.2c0-0.7,0.5-1.2,1-1.2c0.3,0,0.5,0.1,0.7,0.3c0.2,0.2,0.3,0.5,0.3,0.9c0,0.2,0,1.6,0.3,2.9
		c0.2,1,0.6,2.2,1.3,2.2c0.3,0,0.5-0.1,0.8-0.4c0.5-0.6,1.2-2,1.5-5.7c0.3-3.3,0.2-7.7-0.3-13.1c-0.7,0-1.5,0-2.3,0.1
		c-0.7,0-1.4,0.1-2.1,0.1c-0.7,0-1.2-0.3-1.3-0.9c-0.1-0.5,0.3-1.1,0.7-1.2c0.5-0.1,3.3-0.6,5.9-0.7c0.4,0,1.8-0.1,2.6,0.6
		C139.9,198.1,140.1,198.5,140.1,199.1z"/>
	<path d="M152.8,199.2c0.1,1.6,0.3,5.9,0,10.2c-0.3,5.4-1.3,9-2.8,10.6c-0.6,0.7-1.4,1-2.2,1c-1.3,0-2.2-0.5-3-1.4
		c-0.6-0.8-1.2-1.8-1.7-3.5c-0.6-1.7-1-4.4-1.2-7.5c-0.2-3-0.1-6.1,0.2-8.6c0.1-0.6,0.8-1,1.8-0.9c0.5,0.1,1,0.2,1.4,0.4
		c0.5,0.3,0.7,0.6,0.7,0.9c-0.3,3-0.3,7-0.1,10.6c0.3,4,0.8,6.7,1.5,7.4c0.1,0.1,0.2,0.2,0.3,0.2c0.2,0,0.7-0.2,1.1-1.8
		c0.3-1.2,0.6-2.9,0.9-5c0.4-3.7,0.6-8.6,0.6-13.6c0-0.3,0.1-0.6,0.4-0.7c0.4-0.2,1-0.1,1.4,0.2c0.4,0.3,0.7,0.6,0.7,1
		C152.8,198.6,152.8,198.9,152.8,199.2z"/>
	<path d="M164.7,219.7c0,0.9-0.4,1.1-0.7,1.2c-0.1,0-0.3,0.1-0.5,0.1c-0.8,0-1.7-0.5-2-0.9c-0.3-0.5-1.4-3.9-2.9-8.8
		c-0.2-0.7-0.4-1.4-0.6-2c-0.1,3.6,0.3,9.4,0.4,10.2c0,0.5-0.3,0.9-0.9,1c-0.8,0.1-1.8-0.2-1.9-0.9c-0.2-1-0.6-5.3-0.9-9.8
		c-0.1-2.6-0.5-9-0.1-11.8c0.1-0.5,0.5-0.8,1.3-0.9c1-0.1,2.4,0.3,2.7,1.1c0.3,1,0.7,2.6,1.1,4.3c0.6,2.4,1.3,5.4,1.8,7
		c0-3.4,0.1-8.7,0.5-11.6c0.1-0.5,0.6-0.9,1.3-0.8c0.7,0.1,1.3,0.6,1.3,1.5C164.5,202,164.6,215.2,164.7,219.7z"/>
	<path d="M170.6,200.4c-0.1,1.7-0.3,4.9-0.4,8.2c0.7,0,1.5,0,2.3,0c1,0,2,0,2.5,0c0.6,0,0.8,0.3,0.9,0.6c0,0.5-0.4,1.1-1,1.1
		c-0.2,0-0.7,0-1.4,0c-0.8,0-1.8,0-2.6,0c-0.2,0-0.4,0-0.6,0c-0.1,5,0,7.1,0.2,7.4c0.1,0.2,0.4,0.4,1,0.5c0.6,0.1,1.4,0.1,2.2,0.2
		c0.8,0,1.7,0.1,2.6,0.2c0.7,0.1,1.1,0.6,1.1,1.1c0,0.4-0.2,0.9-1,1c-1.6,0.3-5.1,0.3-5.2,0.3c-1.1,0-2.1-0.3-2.8-0.8
		c-0.7-0.5-1.2-1.2-1.3-1.9c-0.6-3.5-0.9-14.7-0.2-20c0-0.4,0.2-0.6,0.6-0.8c0.3-0.1,0.6-0.2,1-0.2c1.2,0,7.3,0.3,8.1,0.4
		c0.6,0.1,0.9,0.8,0.9,1.5c0,0.7-0.4,1.2-1,1.3C175,200.3,171.5,200.4,170.6,200.4z"/>
	<path d="M196.1,211.2c0.2,0.7,0.4,1.5,0.4,2.4c0,1.5-0.5,2.9-1.5,4c-0.5,0.6-1.1,1-1.8,1.3c-0.7,0.3-1.5,0.5-2.4,0.5
		c-1,0-1.8-0.2-2.5-0.7c-0.6-0.4-1.1-0.9-1.5-1.5c-0.7-1.2-0.9-2.4-1-3.1c0,0,0-0.1,0-0.1c0-0.1,0-0.1,0-0.2c0-0.5,0.3-0.8,0.6-0.9
		c0.4-0.1,0.9,0.2,1,0.9c0.4,2.3,1.5,3.4,3.3,3.4c0.4,0,1-0.2,1.5-0.9c0.4-0.5,0.9-1.4,0.9-3c0-1.6-0.3-2.6-0.9-3.2
		c-0.5-0.5-1.2-0.7-2.1-0.7c-0.1,0-0.1,0-0.2-0.1c0,0-0.1-0.1-0.1-0.1c-0.2-0.2-0.5-0.4-0.6-0.8c-0.2-0.4-0.3-0.9-0.1-1.5
		c0,0,0-0.1,0.1-0.1c1.1-1.2,1.9-2.2,2.5-3.1c0.7-1,1-1.7,1-2.4c0-1.4-0.7-2.3-2-2.3c-1.5,0-2.6,1.8-3,2.6c-0.3,0.6-0.8,0.7-1.1,0.5
		c-0.3-0.1-0.6-0.5-0.4-1c0.3-1,1-2,1.8-2.8c1.1-1,2.4-1.6,3.7-1.6c1.3,0,2.3,0.3,3.1,0.8c1,0.7,1.5,1.8,1.5,3.3
		c0,1.4-0.7,3-2.2,4.6c-0.9,1-1.8,1.8-2.4,2.3c0,0,0,0,0,0c1.3,0,2.3,0.4,3.1,1.1C195.4,209.7,195.8,210.4,196.1,211.2z"/>
	<path d="M206.2,201.2c0.7,2.6,0.8,5.8,0.8,7.4c0,2.5-0.4,5.1-0.9,6.9c-0.4,1.1-0.8,2-1.3,2.7c-0.6,0.7-1.3,1.1-2.1,1.1
		c-1.5,0-2.7-1.2-3.5-3.4c-0.7-1.9-1.1-4.5-1.1-7.4c0-1.7,0.3-4.6,1.1-7.1c0.4-1.3,0.9-2.3,1.5-3c0.7-0.9,1.5-1.3,2.3-1.3
		c0.8,0,1.5,0.4,2.1,1.2C205.4,199,205.8,199.9,206.2,201.2z M204.1,213.8c0.3-1.4,0.5-3.2,0.5-5c0-2.1-0.1-4.1-0.4-5.6
		c-0.1-0.8-0.3-1.4-0.4-1.8c-0.2-0.4-0.3-0.5-0.4-0.6c-0.1,0.1-0.5,0.7-0.8,2.7c-0.3,1.7-0.4,3.6-0.4,5.4c0,1.4,0.2,3.1,0.4,4.6
		c0.3,1.7,0.6,2.3,0.8,2.4C203.4,215.7,203.8,215.2,204.1,213.8z"/>
	<path d="M221.9,198c0,0.5-0.2,1.5-0.7,1.6c-1,0.1-2.2,0.1-3.1,0.1c-0.3,0-0.7,0-0.9,0c-0.7,7.7-0.5,14.2-0.1,19.7
		c0,0.3-0.1,0.7-0.3,0.9c-0.2,0.2-0.5,0.3-0.8,0.4c-0.1,0-0.1,0-0.2,0c-0.3,0-0.6-0.1-0.9-0.2c-0.4-0.2-0.6-0.5-0.7-1
		c-0.6-3.4-1.2-14.1-0.8-19.8c-0.2,0-0.5,0-0.8,0c-1,0-2.3,0.1-3,0c-0.6,0-1-0.6-1-1.2c0-0.5,0.3-0.9,0.8-1c1-0.1,4.3-0.4,6-0.4
		c1.6,0,5.1,0.1,6.1,0.1C221.5,197.3,221.8,197.4,221.9,198z"/>
	<path d="M234.8,198.8c-0.9,8.4-0.6,15-0.3,20.6c0,0.3-0.1,0.7-0.3,0.9c-0.2,0.2-0.5,0.3-0.8,0.4c-0.1,0-0.1,0-0.2,0
		c-0.3,0-0.6-0.1-0.9-0.2c-0.4-0.2-0.6-0.5-0.7-1c-0.3-1.7-0.6-5.3-0.8-9.1c-0.2,0-0.4,0-0.6,0c-0.8,0-1.8,0-2.6,0
		c-0.3,0-0.5,0-0.7,0c0,3.3,0.2,6.3,0.3,9.1c0,0.3-0.1,0.7-0.3,0.9c-0.2,0.2-0.5,0.3-0.8,0.4c-0.1,0-0.1,0-0.2,0
		c-0.3,0-0.6-0.1-0.9-0.2c-0.4-0.2-0.6-0.5-0.7-1c-0.7-3.7-1.3-16-0.7-21.2c0.1-0.8,1.3-1.3,2.3-1.2c0.5,0.1,0.9,0.2,1.1,0.5
		c0.3,0.3,0.5,0.7,0.4,1.2c-0.4,3.5-0.6,6.8-0.6,9.7c0.7,0,1.5,0,2.4,0c0.5,0,1,0,1.4,0c-0.1-3.9-0.1-7.9,0.2-10.3
		c0.1-0.8,1.3-1.3,2.3-1.2c0.5,0.1,0.9,0.2,1.1,0.5C234.7,197.9,234.8,198.3,234.8,198.8z"/>
	<path d="M256.1,219.2c-0.2,0.1-0.4,0.2-0.6,0.2c-0.1,0-0.2,0-0.3,0c-0.4-0.1-0.7-0.3-1-0.6c-0.2-0.2-0.8-1.1-1.6-2.3
		c0,0-0.1,0.1-0.1,0.1c-1.6,1.8-3,2.8-4.4,2.8c-0.5,0-1.9-0.1-3-1.1c-0.5-0.5-0.9-1-1.2-1.7c-0.3-0.8-0.5-1.7-0.5-2.7
		c0-2.1,1.7-4.3,3.6-6.4c-0.2-0.4-0.4-0.8-0.6-1.2c-0.9-1.9-1.3-3.4-1.3-4.5c0-1.8,0.8-2.9,1.5-3.5c0.8-0.7,1.9-1.1,2.9-1.1
		c1,0,2,0.4,2.7,1c0.6,0.5,1.3,1.5,1.3,3c0,1.3-0.4,2.6-1.1,4c-0.6,1-1.3,2-2,3c0.2,0.5,0.5,1,0.8,1.5c0.5,1,1.1,2,1.6,2.9
		c0.4-0.5,0.8-1,1-1.2c0.6-0.9,1.1-0.6,1.3-0.5c0.2,0.1,0.3,0.4,0.4,0.7c0,0.3,0,0.6-0.2,0.8c0,0.1-0.1,0.2-0.1,0.3
		c-0.3,0.5-0.7,1.1-1.2,1.9c0.7,1.1,1.3,2,1.7,2.6c0.3,0.4,0.5,0.7,0.6,0.9C256.6,218.7,256.2,219.1,256.1,219.2z M251.1,214.4
		c-0.6-0.9-1.2-1.8-1.8-2.8c-0.2-0.4-0.5-0.8-0.7-1.1c-0.9,1.3-1.5,2.5-1.5,3.9c0,0.8,0.2,1.2,0.4,1.5c0.2,0.3,0.5,0.4,0.8,0.4
		C248.9,216.2,249.9,215.6,251.1,214.4z M248.2,201.7c0,0.8,0.3,1.9,0.8,3.3c1.2-1.4,2.1-2.8,2.1-3.8c0-1-0.5-2-1.2-2
		c-0.2,0-0.7,0.2-1.1,0.7C248.6,200.2,248.2,200.8,248.2,201.7z"/>
	<path d="M274.7,199.1c0.2,5.8,0.2,10.3-0.3,13.6c-0.4,3.4-1.3,5.7-2.5,7c-0.8,0.8-1.8,1.2-2.9,1.2c-1.3,0-2.3-0.7-3-2
		c-0.6-1.2-0.8-2.9-0.8-5.2c0-0.7,0.5-1.2,1-1.2c0.3,0,0.5,0.1,0.7,0.3c0.2,0.2,0.3,0.5,0.3,0.9c0,0.2,0,1.6,0.3,2.9
		c0.2,1,0.6,2.2,1.3,2.2c0.3,0,0.5-0.1,0.8-0.4c0.5-0.6,1.2-2,1.5-5.7c0.3-3.3,0.2-7.7-0.3-13.1c-0.7,0-1.5,0-2.3,0.1
		c-0.7,0-1.4,0.1-2.1,0.1c-0.7,0-1.2-0.3-1.3-0.9c-0.1-0.5,0.3-1.1,0.7-1.2c0.5-0.1,3.3-0.6,5.9-0.7c0.4,0,1.8-0.1,2.6,0.6
		C274.5,198.1,274.6,198.5,274.7,199.1z"/>
	<path d="M287.4,199.2c0.1,1.6,0.3,5.9,0,10.2c-0.3,5.4-1.3,9-2.8,10.6c-0.6,0.7-1.4,1-2.2,1c-1.3,0-2.2-0.5-3-1.4
		c-0.6-0.8-1.2-1.8-1.7-3.5c-0.6-1.7-1-4.4-1.2-7.5c-0.2-3-0.1-6.1,0.2-8.6c0.1-0.6,0.8-1,1.8-0.9c0.5,0.1,1,0.2,1.4,0.4
		c0.5,0.3,0.7,0.6,0.7,0.9c-0.3,3-0.3,7-0.1,10.6c0.3,4,0.8,6.7,1.5,7.4c0.1,0.1,0.2,0.2,0.3,0.2c0.2,0,0.7-0.2,1.1-1.8
		c0.3-1.2,0.6-2.9,0.9-5c0.4-3.7,0.6-8.6,0.6-13.6c0-0.3,0.1-0.6,0.4-0.7c0.4-0.2,1-0.1,1.4,0.2c0.4,0.3,0.7,0.6,0.7,1
		C287.3,198.6,287.3,198.9,287.4,199.2z"/>
	<path d="M299.7,219.6c0,0.4-0.2,0.9-1,1c-1.6,0.3-5.1,0.3-5.2,0.3c-1.1,0-2-0.2-2.5-0.6c-0.5-0.4-0.8-1-1-1.8
		c-0.3-1.8-0.7-5.5-0.9-9.5c-0.2-4.5-0.2-8.5,0-10.8c0.1-0.7,0.8-1.1,1.8-1c0.5,0,1.1,0.2,1.4,0.5c0.5,0.3,0.7,0.8,0.7,1.3
		c0,0,0,0,0,0c-0.2,1.8-0.3,6.1-0.3,10.5c0,5.2,0.2,7.9,0.3,8.2c0.2,0.5,1.6,0.6,3,0.6c0.8,0,1.6,0.1,2.5,0.2
		C299.4,218.6,299.7,219.2,299.7,219.6z"/>
	<path d="M308.6,198c0,3.4-0.4,6.5-1.1,8.8c-0.4,1.3-0.9,2.4-1.5,3.1c-0.3,0.4-0.6,0.6-1,0.8c0,3.2,0.2,6.2,0.3,8.6
		c0,0.3-0.1,0.7-0.3,0.9c-0.2,0.2-0.5,0.3-0.8,0.4c-0.1,0-0.1,0-0.2,0c-0.3,0-0.6-0.1-0.8-0.2c-0.4-0.2-0.6-0.5-0.7-1
		c-0.3-1.6-0.6-5-0.8-8.7c-0.4-0.2-0.8-0.5-1.2-1c-0.6-0.8-1.2-1.8-1.7-3.5c-0.7-2.2-1.2-5.1-1.2-7.8c0-0.6,1.3-0.9,2.2-0.9
		c0.3,0,0.8,0,1.1,0.2c0.4,0.2,0.6,0.5,0.6,0.8c0,2.7,0.2,5.3,0.6,7.2c0.4,2.2,1,3,1.3,3c0.4,0,1.1-0.8,1.6-3.1
		c0.5-2.1,0.8-4.9,0.8-7.8c0-0.5,0.5-0.8,1.3-0.8c0.4,0,0.7,0.1,1,0.2C308.5,197.4,308.6,197.7,308.6,198z"/>
	<path d="M321.2,198.8c-0.9,8.2-0.6,14.1-0.3,19.4c0,0.3-0.1,0.6-0.3,0.9c-0.2,0.2-0.5,0.3-0.8,0.4c-0.1,0-0.1,0-0.2,0
		c-0.3,0-0.6-0.1-0.8-0.2c-0.4-0.2-0.6-0.5-0.7-0.9c-0.7-3.5-1.2-14.9-0.6-20c0.1-0.8,1.2-1.3,2.2-1.1c0.5,0.1,0.8,0.2,1.1,0.5
		C321.1,197.9,321.3,198.3,321.2,198.8z"/>
	<path d="M327.8,200.6c-0.5,0.8-0.8,1.9-0.8,3c0,1.4,1.2,2.5,2.5,3.7c0.9,0.8,1.8,1.7,2.6,2.8c0.8,1.3,1.3,2.6,1.3,4.1
		c0,1.6-0.5,3.4-1.5,4.7c-1,1.4-2.4,2.2-3.8,2.2c-1,0-1.9-0.3-2.7-0.8c-0.6-0.5-1.2-1.1-1.6-1.9c-0.7-1.3-1-2.9-1-3.6
		c0-0.7,0.4-1.2,0.9-1.3c0.4-0.1,1,0.3,1.2,1.3c0.6,2.5,1.4,3.6,2.6,3.6c0.4,0,0.9-0.3,1.3-0.9c0.3-0.5,0.7-1.4,0.7-2.9
		c0-2.5-1.4-3.9-3-5.4c-1.6-1.5-3.2-3.1-3.2-6c0-0.8,0.1-1.5,0.3-2.2c0.2-0.7,0.6-1.4,1-1.9c1-1.3,2.4-1.9,4.1-1.9
		c1.6,0,2.8,0.8,3.7,2.4c0.7,1.3,0.9,2.8,0.9,3.3c0,0.5-0.1,1-0.4,1.3c-0.2,0.3-0.6,0.4-0.9,0.4c-0.4,0-0.9-0.2-1.3-0.5
		c-0.4-0.3-0.6-0.7-0.6-1c0-0.5-0.1-1.5-0.3-2.2c-0.2-0.8-0.5-1.3-0.7-1.3C328.7,199.5,328.2,199.9,327.8,200.6z"/>
	<path d="M347.5,198c0,0.5-0.2,1.5-0.7,1.6c-1,0.1-2.2,0.1-3.1,0.1c-0.3,0-0.7,0-0.9,0c-0.7,7.7-0.5,14.2-0.1,19.7
		c0,0.3-0.1,0.7-0.3,0.9c-0.2,0.2-0.5,0.3-0.8,0.4c-0.1,0-0.1,0-0.2,0c-0.3,0-0.6-0.1-0.9-0.2c-0.4-0.2-0.6-0.5-0.7-1
		c-0.6-3.4-1.2-14.1-0.8-19.8c-0.2,0-0.5,0-0.8,0c-1,0-2.3,0.1-3,0c-0.6,0-1-0.6-1-1.2c0-0.5,0.3-0.9,0.8-1c1-0.1,4.3-0.4,6-0.4
		c1.6,0,5.1,0.1,6.1,0.1C347.1,197.3,347.4,197.4,347.5,198z"/>
	<path d="M363.1,211.1c-1.4,2.7-3,5.1-3.5,6c1.4,0.1,4.2,0.4,4.6,0.4c0.3,0,0.5,0.3,0.6,0.4c0.2,0.2,0.3,0.5,0.3,0.8
		c0,0.2-0.1,0.4-0.2,0.5c-0.2,0.1-0.4,0.2-0.7,0.2H358c-0.3,0-1.4-0.1-1.8-0.8c-0.1-0.2-0.2-0.6,0.1-1.1c0,0,0.1-0.1,0.1-0.2
		c3.6-6.4,5.6-11.5,5.6-14.3c0-1.1-0.1-1.9-0.4-2.4c-0.2-0.4-0.5-0.6-0.9-0.6c-0.4,0-0.8,0.2-1.2,0.7c-0.4,0.5-0.8,1.2-1.1,2.2
		c-0.4,1.3-1.1,1.2-1.3,1.2c-0.3-0.1-0.5-0.2-0.7-0.6c-0.2-0.3-0.2-0.7-0.2-1.1c0-0.4,0.1-0.9,0.2-1.5c0.1-0.6,0.4-1.1,0.7-1.7
		c0.8-1.4,2-2.2,3.5-2.2c0.9,0,1.7,0.2,2.4,0.5c0.7,0.3,1.2,0.7,1.7,1.3c0.8,1,1.2,2.4,1.2,4.1C365.8,204.9,364.9,207.6,363.1,211.1
		z"/>
	<path d="M374.9,201.2c0.7,2.6,0.8,5.8,0.8,7.4c0,2.5-0.4,5.1-0.9,6.9c-0.4,1.1-0.8,2-1.3,2.7c-0.6,0.7-1.3,1.1-2.1,1.1
		c-1.5,0-2.7-1.2-3.5-3.4c-0.7-1.9-1.1-4.5-1.1-7.4c0-1.7,0.3-4.6,1.1-7.1c0.4-1.3,0.9-2.3,1.5-3c0.7-0.9,1.5-1.3,2.3-1.3
		c0.8,0,1.5,0.4,2.1,1.2C374.2,199,374.6,199.9,374.9,201.2z M372.8,213.8c0.3-1.4,0.5-3.2,0.5-5c0-2.1-0.1-4.1-0.4-5.6
		c-0.1-0.8-0.3-1.4-0.4-1.8c-0.2-0.4-0.3-0.5-0.4-0.6c-0.1,0.1-0.5,0.7-0.8,2.7c-0.3,1.7-0.4,3.6-0.4,5.4c0,1.4,0.2,3.1,0.4,4.6
		c0.3,1.7,0.6,2.3,0.8,2.4C372.2,215.7,372.5,215.2,372.8,213.8z"/>
	<path d="M384.3,211.1c-1.4,2.7-3,5.1-3.5,6c1.4,0.1,4.2,0.4,4.6,0.4c0.3,0,0.5,0.3,0.6,0.4c0.2,0.2,0.3,0.5,0.3,0.8
		c0,0.2-0.1,0.4-0.2,0.5c-0.2,0.1-0.4,0.2-0.7,0.2h-6.2c-0.3,0-1.4-0.1-1.8-0.8c-0.1-0.2-0.2-0.6,0.1-1.1c0,0,0.1-0.1,0.1-0.2
		c3.6-6.4,5.6-11.5,5.6-14.3c0-1.1-0.1-1.9-0.4-2.4c-0.2-0.4-0.5-0.6-0.9-0.6c-0.4,0-0.8,0.2-1.2,0.7c-0.4,0.5-0.8,1.2-1.1,2.2
		c-0.4,1.3-1.1,1.2-1.3,1.2c-0.3-0.1-0.5-0.2-0.7-0.6c-0.2-0.3-0.2-0.7-0.2-1.1c0-0.4,0.1-0.9,0.2-1.5c0.1-0.6,0.4-1.1,0.7-1.7
		c0.8-1.4,2-2.2,3.5-2.2c0.9,0,1.7,0.2,2.4,0.5c0.7,0.3,1.2,0.7,1.7,1.3c0.8,1,1.2,2.4,1.2,4.1C387,204.9,386.1,207.6,384.3,211.1z"
		/>
	<path d="M392.5,198.8c-0.9,8.2-0.6,14.1-0.3,19.4c0,0.3-0.1,0.6-0.3,0.9c-0.2,0.2-0.5,0.3-0.8,0.4c-0.1,0-0.1,0-0.2,0
		c-0.3,0-0.6-0.1-0.8-0.2c-0.4-0.2-0.6-0.5-0.7-0.9c-0.7-3.5-1.2-14.9-0.6-20c0.1-0.8,1.2-1.3,2.2-1.1c0.5,0.1,0.8,0.2,1.1,0.5
		C392.4,197.9,392.6,198.3,392.5,198.8z"/>
</g>
</svg>
