<?xml version="1.0" encoding="utf-8"?>
<!-- Generator: Adobe Illustrator 25.2.3, SVG Export Plug-In . SVG Version: 6.00 Build 0)  -->
<svg version="1.1" id="Layer_1" xmlns="http://www.w3.org/2000/svg" xmlns:xlink="http://www.w3.org/1999/xlink" x="0px" y="0px"
	 viewBox="0 0 425.2 226.8" style="enable-background:new 0 0 425.2 226.8;" xml:space="preserve">
<style type="text/css">
	.st0{fill:#3B89A7;}
	.st1{fill:#37C3DB;}
	.st2{fill:#9EC2D2;}
	.st3{fill:#08283F;}
	.st4{fill:#FBB040;}
</style>
<g>
	<g>
		<g>
			<g>
				<circle class="st0" cx="356.6" cy="82.9" r="5.7"/>
			</g>
			<g>
				<circle class="st1" cx="369.9" cy="110.5" r="3.8"/>
			</g>
			<g>
				<circle class="st2" cx="373.2" cy="139.4" r="3.3"/>
			</g>
			<g>
				<g>
					<path class="st3" d="M351.5,124.5c-2.1,3-4,6-4.4,9.7c0,0.4,0.1,1.1,0.4,1.3c0.3,0.2,1,0.3,1.4,0.1c1.4-0.7,2.7-1.6,4.1-2.4
						c1.3-0.8,2.6-1.7,3.9-2.6c1.3-0.9,2.5-1.9,3.7-2.9c0.5-0.5,1-0.9,1.6-1.4c-0.1-4.3-1.1-8.4-3.2-12.3c-1,1.4-2,2.9-3.1,4.3
						C354.4,120.4,353,122.5,351.5,124.5z"/>
				</g>
				<g>
					<path class="st3" d="M339.4,97.3c-0.8,2.6-1.6,5.3-2.5,7.9c-0.9,2.8-2,5.5-2.8,8.3c-0.9,3-1.7,6.1-2.3,9.2
						c-0.2,0.9,0.2,2.1,0.6,3c0.5,1.1,2.4,1.1,3.4,0.1c1.9-2.2,3.8-4.5,5.7-6.7c1.4-1.7,2.8-3.4,4.2-5.2c1.4-1.8,2.7-3.7,4.1-5.5
						c1.1-1.4,2.2-2.9,3.4-4.3c-3.4-6-6.9-11.9-10.3-17.9c-0.4,1.3-0.8,2.6-1.2,4C341,92.5,340.1,94.9,339.4,97.3z"/>
				</g>
				<g>
					<path class="st3" d="M292.6,148.5c0-1.7-0.3-3.5-0.5-5.2c-0.3-3-0.7-6-0.9-9c-0.1-1.9-0.3-3.7-0.9-5.4
						c-1.2-3.5-2.3-7.1-3.8-10.6c-0.9-2.2-2.3-4.1-3.5-6.1c-0.3-0.5-0.6-1.1-0.9-1.6c-0.5-1.1-0.3-1.7,0.8-2.3
						c0.5-0.3,1.1-0.5,1.6-0.6c3-0.2,5.6,0.5,7.7,2.7c0.8,0.8,1.7,1.5,2.5,2.3c2.4,2.2,3.7,5,4.5,8.1c0.5,1.8,1.1,3.5,1.7,5.3
						c0.8,2.2,1.6,4.3,2.5,6.5c0.3,0.8,0.7,1.6,1.1,2.4c0.7,1.3,2.1,1.4,3.4,0.3c1.8-1.5,2.9-3.6,4.1-5.6c0.6-1.1,1.1-2.2,1.7-3.3
						c1.5-2.6,3.2-5.1,4.7-7.7c0.8-1.4,1.4-2.8,2.1-4.3c0.7-1.4,1.3-2.9,2-4.3c1.3-2.8,2.7-5.6,3.9-8.4c1.1-2.3,2.1-4.7,3-7.1
						c1.3-3.5,2.4-7,3.9-10.4c1.1-2.6,2.5-5.1,4-7.5c0,0,0-0.1-0.1-0.1c-3.3-5.6-6.6-11.2-10-16.7c-0.9-1.4-2-2.8-3.3-3.9
						c-2.1-1.9-3.8-1.4-4.7,1.3c-0.2,0.5-0.3,1.1-0.4,1.6c-0.2,1.7-0.5,3.4-0.5,5.1c0.2,4.6,0.7,9.2,0.8,13.8c0,2.1-0.3,4.3-0.9,6.4
						c-0.5,1.9-2.1,2.9-4.2,2.7c-1.3-0.1-2.8-0.3-3.9-1c-1.9-1.2-3.7-2.4-5.5-3.7c-6.7,10.6-18.6,17.7-32.1,17.7
						c-14.1,0-26.4-7.7-32.9-19.1c-5.5,5.3-11.1,10.6-16.7,15.8c-4.6,4.3-9.4,8.3-14.2,12.3c-4,3.3-5.6,7.1-4.2,12.2
						c3.1,11.2,7.1,22,11.7,32.6c1.7,3.9,3.9,7.5,5.9,11.2c0.4,0.7,1.3,1.3,2.2,1.6c1.9,0.7,3.8,0.3,5.5-0.5c1.5-0.8,3-1.6,4.4-2.4
						c-1.1-1.9-2.1-4-3-6.1c-1.3-3.1-2.6-6.1-4.8-8.6c-1.1-1.2-2.2-2.3-3.3-3.5c-0.9-1-1.9-2-2.8-3c-0.9-1-1.8-2.1-2.6-3.2
						c-1.1-1.4-2.3-2.8-3.4-4.3c-0.9-1.2-1.7-2.3-2.5-3.6c-0.4-0.5-0.6-1.2-0.8-1.8c-0.2-0.6,0.2-1,0.7-1.2c1.1-0.5,1.9-0.1,2.7,0.7
						c2,1.9,3.9,3.7,5.9,5.5c1.8,1.6,3.5,3.2,5.4,4.6c1.8,1.3,3.7,2.5,5.8,3.2c0.4,0.2,1.1,0.2,1.4,0c0.3-0.2,0.4-0.9,0.3-1.3
						c-0.5-1.4-1-2.9-1.6-4.2c-0.6-1.3-1.4-2.6-2.1-3.9c-0.4-0.8-0.9-1.5-1.3-2.3c-0.4-0.8-0.8-1.7-1.2-2.5
						c-0.9-1.7-1.7-3.4-2.6-5.1c-1-2-2.1-4.1-3-6.2c-0.8-1.6-1.4-3.3-1.7-5c-0.1-0.7,0.2-1.6,0.6-1.7c0.9-0.4,2.3-0.2,2.9,0.6
						c1.1,1.4,2,2.8,3,4.2c0.4,0.5,0.6,1.1,1,1.7c0.6,1,1.3,2,1.9,3c1.1,1.7,2.1,3.4,3.2,5.1c0.9,1.5,1.9,3,2.8,4.5
						c0.5,0.8,1.1,1.6,1.7,2.4c0.6,0.8,1.3,1.5,1.9,2.2c0.7,0.7,1.3,1.5,2,2.2c0.2,0.2,0.6,0.3,0.9,0.2c0.2-0.1,0.4-0.5,0.5-0.7
						c0.4-2.3-0.2-4.4-1-6.6c-0.5-1.5-1-3-1.6-4.5c-0.5-1.3-0.9-2.6-1.4-3.8c-0.5-1.4-1-2.8-1.4-4.3c-0.2-0.7-0.4-1.4-0.7-2.1
						c-0.6-1.6-1.1-3.1-1.7-4.7c-0.3-0.7-0.5-1.5-0.6-2.2c-0.3-1.7-1-3.2-1-5c0-0.7,0.3-1.3,0.9-1.7c0.7-0.4,1.5-0.6,2.3-0.1
						c0.8,0.4,1.3,1.1,1.6,1.9c0.9,1.9,1.9,3.9,2.8,5.9c1,2.3,1.8,4.6,2.8,6.9c0.6,1.4,1.2,2.9,1.8,4.3c0.5,1.3,1,2.7,1.6,4
						c0.5,1.3,1.1,2.6,1.7,3.8c0.7,1.7,1.5,3.4,2.3,5c0.4,0.8,1.5,1.1,2,0.5c0.4-0.5,0.8-1.1,0.9-1.7c0.2-2,0.2-4,0.2-5.9
						c0-1.8-0.2-3.6-0.3-5.5c-0.1-1.7-0.1-3.4-0.1-5.2c-0.1-1.6-0.1-3.1-0.2-4.7c0-1.7,0-3.4-0.1-5.1c0-1.1,0-2.2,0.5-3.2
						c0.4-0.9,1.7-1.6,2.4-1.3c0.9,0.4,1.7,1.1,2,2c0.5,1.8,1,3.7,1.2,5.5c0.3,2.3,0.4,4.6,0.6,7c0.1,1.6,0.4,3.2,0.6,4.8
						c0.3,1.9,0.6,3.8,0.9,5.7c0.2,1,0.3,2,0.5,2.9c0.2,1,0.3,2,0.5,2.9c0.5,1.8,1,3.6,1.5,5.4c0.2,0.7,0.3,1.5,0.5,2.3
						c0.4,1.4,0.7,2.8,1.6,4.1c0.6,0.9,1.4,1.1,2.1,0.4c0.4-0.4,0.7-0.8,1.1-1.3c0.9-1.2,1.8-2.3,2.6-3.5c0.7-0.9,1.3-1.9,1.9-2.9
						c1-1.7,2.3-3.2,4.1-4.1c0.6-0.3,1.3-0.6,1.9-0.9c1.7-1,3.4-1,5.1-0.3c0.3,0.1,0.6,0.4,0.9,0.6c0.5,0.5,0.5,0.9,0.1,1.5
						c-0.2,0.3-0.5,0.6-0.8,0.8c-1,1-2.2,2-3.1,3.1c-1.5,1.8-2.7,3.8-4.1,5.7c-0.7,1-1.1,2-1.5,3.1c-0.3,0.8-0.6,1.6-0.9,2.4
						c3.9,0.2,7.6,1.3,10.9,3.8c2.3,1.7,4.4,3.8,6.5,5.9c0-0.9,0-1.8,0-2.7C292.4,152.6,292.7,150.6,292.6,148.5z"/>
				</g>
				<g>
					<path class="st3" d="M328.3,194.7c0.7,1.6,1.7,3,2.8,4.4c1.2,1.4,2.5,1.4,3.7,0c1.1-1.2,2.1-2.5,2.7-4c0.9-2.2,1.7-4.5,2.2-6.8
						c0.1-0.6,0.1-1.2,0-1.7c-3.9,2.6-8.1,4.5-12.5,5.5C327.6,193,327.9,193.8,328.3,194.7z"/>
				</g>
				<g>
					<path class="st0" d="M267.9,148.3c-8.9,1.9-17,5.5-24.7,10.3c-2.9,1.8-5.8,3.4-8.8,5c4.9,8.4,12.5,14.4,24.2,11.8
						c8.5-1.9,10.9-10.5,13.2-18.1c0.4-1.2,0.6-2.5,0.9-3.7c0.3-1,0.8-2,1.2-3.1c0.4-0.9,0.8-1.9,1.2-2.8
						C272.7,147.5,270.3,147.8,267.9,148.3z"/>
				</g>
				<g>
					<path class="st2" d="M277.5,142.1c1.3-1.9,2.6-3.9,4.1-5.7c0.9-1.1,2.1-2.1,3.1-3.1c0.3-0.3,0.6-0.5,0.8-0.8
						c0.5-0.6,0.5-1-0.1-1.5c-0.3-0.2-0.6-0.5-0.9-0.6c-1.8-0.7-3.5-0.6-5.1,0.3c-0.6,0.4-1.3,0.6-1.9,0.9c-1.8,0.9-3.1,2.4-4.1,4.1
						c-0.6,1-1.3,1.9-1.9,2.9c-0.8,1.2-1.7,2.3-2.6,3.5c-0.3,0.4-0.7,0.9-1.1,1.3c-0.7,0.7-1.5,0.5-2.1-0.4
						c-0.8-1.2-1.2-2.7-1.6-4.1c-0.2-0.7-0.3-1.5-0.5-2.3c-0.5-1.8-1-3.6-1.5-5.4c-0.2-1-0.4-1.9-0.5-2.9c-0.2-1-0.3-2-0.5-2.9
						c-0.3-1.9-0.7-3.8-0.9-5.7c-0.2-1.6-0.4-3.2-0.6-4.8c-0.2-2.3-0.3-4.7-0.6-7c-0.3-1.9-0.7-3.7-1.2-5.5c-0.3-0.9-1.1-1.6-2-2
						c-0.7-0.3-2,0.4-2.4,1.3c-0.4,1-0.5,2.1-0.5,3.2c0,1.7,0,3.4,0.1,5.1c0,1.6,0.1,3.1,0.2,4.7c0.1,1.7,0.1,3.4,0.1,5.2
						c0.1,1.8,0.2,3.6,0.3,5.5c0,2,0,4-0.2,5.9c0,0.6-0.5,1.3-0.9,1.7c-0.5,0.6-1.7,0.3-2-0.5c-0.8-1.7-1.5-3.3-2.3-5
						c-0.6-1.3-1.1-2.5-1.7-3.8c-0.5-1.3-1-2.7-1.6-4c-0.6-1.4-1.2-2.9-1.8-4.3c-0.9-2.3-1.8-4.6-2.8-6.9c-0.9-2-1.8-3.9-2.8-5.9
						c-0.4-0.8-0.9-1.4-1.6-1.9c-0.8-0.4-1.5-0.3-2.3,0.1c-0.6,0.4-0.9,1-0.9,1.7c-0.1,1.7,0.6,3.3,1,5c0.2,0.8,0.4,1.5,0.6,2.2
						c0.5,1.6,1.1,3.1,1.7,4.7c0.2,0.7,0.4,1.4,0.7,2.1c0.5,1.4,0.9,2.8,1.4,4.3c0.4,1.3,0.9,2.6,1.4,3.8c0.5,1.5,1,3,1.6,4.5
						c0.7,2.1,1.4,4.3,1,6.6c-0.1,0.3-0.2,0.7-0.5,0.7c-0.2,0.1-0.7,0-0.9-0.2c-0.7-0.7-1.4-1.4-2-2.2c-0.7-0.7-1.3-1.5-1.9-2.2
						c-0.6-0.8-1.2-1.6-1.7-2.4c-1-1.5-1.9-3-2.8-4.5c-1.1-1.7-2.1-3.4-3.2-5.1c-0.6-1-1.3-2-1.9-3c-0.3-0.5-0.6-1.1-1-1.7
						c-1-1.4-2-2.8-3-4.2c-0.6-0.8-1.9-1-2.9-0.6c-0.4,0.2-0.7,1-0.6,1.7c0.3,1.8,0.9,3.4,1.7,5c1,2.1,2,4.1,3,6.2
						c0.8,1.7,1.7,3.4,2.6,5.1c0.4,0.8,0.8,1.7,1.2,2.5c0.4,0.8,0.9,1.5,1.3,2.3c0.7,1.3,1.5,2.6,2.1,3.9c0.6,1.4,1.2,2.8,1.6,4.2
						c0.1,0.4,0,1.1-0.3,1.3c-0.3,0.2-1,0.2-1.4,0c-2.1-0.7-4-1.9-5.8-3.2c-1.9-1.4-3.6-3.1-5.4-4.6c-2-1.8-4-3.6-5.9-5.5
						c-0.8-0.8-1.6-1.1-2.7-0.7c-0.5,0.2-0.9,0.6-0.7,1.2c0.2,0.6,0.4,1.2,0.8,1.8c0.8,1.2,1.6,2.4,2.5,3.6c1.1,1.4,2.2,2.9,3.4,4.3
						c0.9,1.1,1.7,2.1,2.6,3.2c0.9,1,1.8,2,2.8,3c1.1,1.2,2.2,2.3,3.3,3.5c2.2,2.5,3.6,5.6,4.8,8.6c0.9,2.1,1.9,4.1,3,6.1
						c3-1.6,5.9-3.2,8.8-5c7.7-4.8,15.8-8.4,24.7-10.3c2.4-0.5,4.8-0.8,7.2-0.7c0.3-0.8,0.6-1.6,0.9-2.4
						C276.3,144.1,276.8,143,277.5,142.1z"/>
				</g>
				<g>
					<path class="st0" d="M344,82.3c0.5-1.7,0.9-3.4,0.7-5.1c-0.2-1.5-1.8-3.2-3.1-3c-1.6,0.2-3.1,0.9-3.9,2.2
						c-0.1,0.2-0.2,0.3-0.3,0.5c1.8,3.1,3.6,6.2,5.4,9.4C343.3,84.9,343.7,83.6,344,82.3z"/>
				</g>
				<g>
					<path class="st0" d="M396.9,136.4c-1.4-1.2-2.9-1-4.5-0.1c-3.8,2-7.7,3.9-11.5,5.8c-3.4,1.7-6.8,3.4-10.3,4.8
						c-3.3,1.3-6.8,2.2-10.3,2.4c-0.7,0-1.8-0.1-2.2-0.6c-0.4-0.4-0.3-1.6,0.1-2.2c1.3-2,2.7-4,4.3-5.8c1.5-1.8,3.3-3.4,5-5
						c1-1,2.1-1.9,3-2.9c1-1.1,2-2.3,3-3.4c2-2.2,4.1-4.4,6.2-6.7c2.5-2.7,4.9-5.4,7.3-8.2c1.9-2.1,3.6-4.4,4.8-7
						c0.5-1.1,0.4-2.5-0.2-3c-1.3-1-3.4-1.3-4.7-0.3c-2.2,1.6-4.3,3.4-6.5,5.2c-0.8,0.7-1.4,1.5-2.2,2.2c-1.4,1.3-2.9,2.5-4.3,3.8
						c-2.4,2.2-4.7,4.4-7.1,6.5c-1.6,1.5-3.2,2.9-4.8,4.3c0,1.4,0,2.7-0.1,4.1c-0.9,9.3-4.4,17.6-9,25.5
						c-3.2,5.5-6.9,10.7-11.1,15.5c-4.3,5-9.8,7.4-16.3,7.7c-8.3,0.4-15.3-2.7-21-8.7c-3.5-3.7-6.9-7.6-10.4-11.3
						c-0.6-0.6-1.2-1.2-1.7-1.8c0.2,11.9,0.9,24.7,12.3,30.9c8.1,4.4,15.6,5.3,22.5,3.9c-0.7-1.7-1.2-3.4-1.9-5.1
						c-0.2-0.4-0.2-0.9-0.4-1.6c1.8,0.2,3.5,0.6,5.1,0.6c2.2,0,4.6,0.1,6.7-0.5c1.6-0.4,2.6,0.1,3,1.1c5.4-3.6,10.3-8.6,14.6-13.9
						c3.3-4.1,6.7-8.3,11.2-11.2c2.2-1.4,4.4-2.7,6.6-4c1.9-1.1,3.7-2.2,5.5-3.4c1.8-1.2,3.6-2.5,5.4-3.7c2.4-1.7,4.7-3.4,7-5.1
						c1.8-1.4,3.7-2.8,5.4-4.4c0.8-0.7,1.5-1.5,2-2.4C398,137.8,397.6,137,396.9,136.4z"/>
				</g>
				<g>
					<path class="st0" d="M358.9,114c0.2-0.3,0.5-0.7,0.7-1c1.4-2,2.7-3.9,4-5.9c0.7-1,1.3-2,2-3c1.5-2.2,3.1-4.3,4.6-6.5
						c0.7-1,1.4-2,1.9-3.1c1.2-2.4,3-4.5,3.6-7.2c0.3-1.1,0.1-2.1-0.7-3c-0.9-1-2-1.5-3.4-1.2c-1.4,0.3-2.4,1.1-3.3,2.1
						c-2.3,2.6-4.6,5.1-6.8,7.8c-2.5,3.1-4.8,6.3-7.2,9.4c-0.4,0.5-0.8,1-1.2,1.5c1.8,3.1,3.6,6.2,5.4,9.3
						C358.7,113.6,358.8,113.8,358.9,114z"/>
				</g>
				<g>
					<path class="st1" d="M304.6,170.4c5.7,6,12.6,9.1,21,8.7c6.5-0.3,12-2.7,16.3-7.7c4.2-4.8,7.9-10,11.1-15.5
						c4.6-7.9,8.2-16.2,9-25.5c0.1-1.4,0.2-2.8,0.1-4.1c-0.5,0.5-1,0.9-1.6,1.4c-1.2,1-2.4,2-3.7,2.9c-1.3,0.9-2.6,1.8-3.9,2.6
						c-1.3,0.8-2.7,1.7-4.1,2.4c-0.4,0.2-1.1,0.2-1.4-0.1c-0.3-0.2-0.4-0.9-0.4-1.3c0.4-3.7,2.3-6.7,4.4-9.7
						c1.4-2.1,2.9-4.1,4.4-6.2c1-1.4,2-2.9,3.1-4.3c-0.1-0.2-0.2-0.4-0.3-0.6c-1.8-3.1-3.6-6.2-5.4-9.3c-1.1,1.4-2.3,2.9-3.4,4.3
						c-1.4,1.8-2.7,3.7-4.1,5.5c-1.4,1.7-2.8,3.4-4.2,5.2c-1.9,2.3-3.7,4.5-5.7,6.7c-0.9,1.1-2.8,1-3.4-0.1c-0.4-0.9-0.8-2.1-0.6-3
						c0.6-3.1,1.4-6.2,2.3-9.2c0.8-2.8,1.9-5.5,2.8-8.3c0.9-2.6,1.6-5.3,2.5-7.9c0.8-2.4,1.6-4.7,2.3-7.1c0.4-1.3,0.8-2.6,1.2-4
						c-1.8-3.1-3.6-6.2-5.4-9.4c-1.5,2.4-2.9,4.9-4,7.5c-1.5,3.4-2.6,7-3.9,10.4c-0.9,2.4-1.9,4.8-3,7.1c-1.3,2.8-2.6,5.6-3.9,8.4
						c-0.7,1.4-1.3,2.9-2,4.3c-0.7,1.4-1.3,2.9-2.1,4.3c-1.5,2.6-3.1,5.1-4.7,7.7c-0.6,1.1-1.1,2.2-1.7,3.3c-1.2,2-2.3,4-4.1,5.6
						c-1.2,1.1-2.7,1-3.4-0.3c-0.4-0.8-0.8-1.6-1.1-2.4c-0.8-2.2-1.7-4.3-2.5-6.5c-0.6-1.7-1.2-3.5-1.7-5.3
						c-0.8-3.1-2.1-5.9-4.5-8.1c-0.8-0.8-1.7-1.5-2.5-2.3c-2.1-2.2-4.8-3-7.7-2.7c-0.6,0-1.1,0.3-1.6,0.6c-1,0.6-1.2,1.2-0.8,2.3
						c0.2,0.6,0.6,1.1,0.9,1.6c1.2,2,2.6,4,3.5,6.1c1.4,3.5,2.6,7,3.8,10.6c0.6,1.7,0.8,3.5,0.9,5.4c0.1,3,0.6,6,0.9,9
						c0.2,1.7,0.5,3.5,0.5,5.2c0,2-0.2,4.1-0.2,6.1c0,0.9,0,1.8,0,2.7c0.6,0.6,1.2,1.2,1.7,1.8C297.8,162.8,301.1,166.7,304.6,170.4
						z"/>
				</g>
				<g>
					<path class="st1" d="M336.8,185.5c-2.1,0.6-4.5,0.5-6.7,0.5c-1.6,0-3.3-0.3-5.1-0.6c0.2,0.7,0.2,1.1,0.4,1.6
						c0.6,1.7,1.2,3.4,1.9,5.1c4.4-0.9,8.6-2.9,12.5-5.5C339.4,185.6,338.4,185.1,336.8,185.5z"/>
				</g>
				<g>
					<path class="st4" d="M257,70.2c1.9,1.2,3.7,2.8,5.4,4.2c1.7,1.4,2.7,1.7,4.3,0.2c1.9-1.8,3.7-3.9,5.3-6
						c1.9-2.5,3.7-5.1,5.2-7.9c2-3.6,5-4.5,8.7-4.4c4.3,0.2,8.5,1.1,12.7,2.5c0.2,0.1,0.4,0.2,0.7,0.4c-0.1,0.4-0.2,0.7-0.4,1
						c-1.2,2.4-2.4,4.8-3.6,7.2c-1.2,2.3-1,4.6,0.5,6.5c1.6,2,3.4,4,5.4,5.6c1.2,1,2.4,1.9,3.6,2.7c3.7-5.9,5.9-12.8,5.9-20.3
						c0-21-17-38-38-38s-38,17-38,38c0,6.9,1.8,13.3,5,18.8c3.5-3.4,7-6.7,10.5-10.1C252.2,69,254.7,68.7,257,70.2z"/>
				</g>
				<g>
					<path class="st0" d="M272.8,99.9c13.5,0,25.3-7.1,32.1-17.7c-1.2-0.9-2.4-1.8-3.6-2.7c-2-1.6-3.8-3.6-5.4-5.6
						c-1.5-1.9-1.7-4.2-0.5-6.5c1.2-2.4,2.4-4.8,3.6-7.2c0.1-0.3,0.2-0.6,0.4-1c-0.3-0.2-0.5-0.3-0.7-0.4c-4.1-1.3-8.3-2.3-12.7-2.5
						c-3.7-0.2-6.7,0.8-8.7,4.4c-1.5,2.8-3.3,5.4-5.2,7.9c-1.6,2.1-3.4,4.2-5.3,6c-1.6,1.5-2.6,1.2-4.3-0.2c-1.8-1.5-3.5-3-5.4-4.2
						c-2.3-1.5-4.8-1.2-6.6,0.6c-3.5,3.3-7,6.7-10.5,10.1C246.4,92.2,258.7,99.9,272.8,99.9z"/>
				</g>
			</g>
			<g>
				<circle class="st3" cx="339.3" cy="58.8" r="9.1"/>
			</g>
		</g>
		<g>
			<g>
				<path class="st3" d="M31.6,88.3c-1.2-1.4-1.9-3.4-1.9-6v-1.8h4.7v2.2c0,2.1,0.9,3.1,2.6,3.1c0.9,0,1.5-0.3,1.9-0.8
					c0.4-0.5,0.7-1.3,0.7-2.4c0-1.3-0.3-2.5-0.9-3.5c-0.6-1-1.7-2.2-3.4-3.7c-2.1-1.8-3.5-3.5-4.3-4.9c-0.8-1.5-1.2-3.1-1.2-5
					c0-2.5,0.6-4.5,1.9-5.9c1.3-1.4,3.1-2.1,5.6-2.1c2.4,0,4.2,0.7,5.4,2.1c1.2,1.4,1.8,3.4,1.8,6v1.3h-4.7v-1.6
					c0-1.1-0.2-1.9-0.6-2.4c-0.4-0.5-1-0.8-1.9-0.8c-1.7,0-2.5,1-2.5,3.1c0,1.2,0.3,2.2,0.9,3.2c0.6,1,1.8,2.2,3.4,3.6
					c2.1,1.8,3.5,3.5,4.3,5c0.8,1.5,1.2,3.2,1.2,5.2c0,2.6-0.6,4.6-1.9,6c-1.3,1.4-3.2,2.1-5.6,2.1C34.7,90.3,32.9,89.6,31.6,88.3z"
					/>
			</g>
			<g>
				<path class="st3" d="M49.2,88.2c-1.3-1.4-2-3.4-2-5.9V65.5c0-2.6,0.7-4.5,2-5.9c1.3-1.4,3.2-2.1,5.7-2.1s4.3,0.7,5.7,2.1
					c1.3,1.4,2,3.4,2,5.9v16.8c0,2.6-0.7,4.5-2,5.9c-1.3,1.4-3.2,2.1-5.7,2.1S50.5,89.6,49.2,88.2z M57.4,82.6V65.2
					c0-2.1-0.9-3.1-2.6-3.1s-2.6,1-2.6,3.1v17.4c0,2.1,0.9,3.1,2.6,3.1S57.4,84.7,57.4,82.6z"/>
			</g>
			<g>
				<path class="st3" d="M67.6,88.3c-1.3-1.4-1.9-3.4-1.9-6V58h5v24.7c0,1.1,0.2,1.9,0.7,2.4c0.4,0.5,1.1,0.7,1.9,0.7
					c0.8,0,1.5-0.2,1.9-0.7c0.4-0.5,0.7-1.3,0.7-2.4V58h4.8v24.3c0,2.6-0.6,4.6-1.9,6c-1.3,1.4-3.1,2.1-5.6,2.1
					C70.7,90.3,68.8,89.6,67.6,88.3z"/>
			</g>
			<g>
				<path class="st3" d="M88.1,62.5h-5.2V58h15.5v4.6h-5.2v27.4h-5V62.5z"/>
			</g>
			<g>
				<path class="st3" d="M100.8,58h5v13h5.4V58h5v31.9h-5V75.5h-5.4v14.4h-5V58z"/>
			</g>
			<g>
				<path class="st3" d="M119.9,58h13.7v4.6h-8.7V71h6.9v4.6h-6.9v9.8h8.7v4.6h-13.7V58z"/>
			</g>
			<g>
				<path class="st3" d="M136.5,58h7.4c2.6,0,4.5,0.6,5.7,1.8s1.8,3,1.8,5.5v2c0,3.3-1.1,5.4-3.3,6.3v0.1c1.2,0.4,2.1,1.1,2.6,2.2
					c0.5,1.1,0.8,2.6,0.8,4.5V86c0,0.9,0,1.6,0.1,2.2c0.1,0.6,0.2,1.1,0.5,1.7h-5.1c-0.2-0.5-0.3-1-0.4-1.5s-0.1-1.3-0.1-2.5v-5.8
					c0-1.5-0.2-2.5-0.7-3.1c-0.5-0.6-1.3-0.9-2.4-0.9h-1.7v13.7h-5V58z M143.3,71.6c1,0,1.8-0.3,2.3-0.8c0.5-0.5,0.8-1.4,0.8-2.6
					v-2.5c0-1.2-0.2-2-0.6-2.5c-0.4-0.5-1.1-0.8-1.9-0.8h-2.3v9.1H143.3z"/>
			</g>
			<g>
				<path class="st3" d="M154.8,58h6.3l4.9,19.1h0.1V58h4.5v31.9h-5.2l-6-23.3h-0.1v23.3h-4.5V58z"/>
			</g>
			<g>
				<path class="st3" d="M32.3,96.9h6.8l5.2,31.9h-5l-0.9-6.3v0.1h-5.7l-0.9,6.2h-4.7L32.3,96.9z M37.7,118.2l-2.2-15.8h-0.1
					l-2.2,15.8H37.7z"/>
			</g>
			<g>
				<path class="st3" d="M46.7,96.9h7.6c2.6,0,4.5,0.6,5.7,1.8s1.8,3,1.8,5.5v1.3c0,1.6-0.3,3-0.8,4c-0.5,1-1.3,1.8-2.4,2.2v0.1
					c2.5,0.9,3.7,3.1,3.7,6.7v2.7c0,2.5-0.6,4.3-1.9,5.6c-1.3,1.3-3.2,1.9-5.7,1.9h-7.9V96.9z M53.6,109.9c1,0,1.8-0.3,2.3-0.8
					c0.5-0.5,0.8-1.4,0.8-2.6v-1.8c0-1.2-0.2-2-0.6-2.5c-0.4-0.5-1.1-0.8-1.9-0.8h-2.4v8.4H53.6z M54.6,124.2c0.9,0,1.5-0.2,2-0.7
					c0.4-0.5,0.6-1.3,0.6-2.4v-2.8c0-1.5-0.3-2.5-0.8-3c-0.5-0.6-1.3-0.8-2.5-0.8h-2.2v9.8H54.6z"/>
			</g>
			<g>
				<path class="st3" d="M66.7,127.1c-1.3-1.4-2-3.4-2-5.9v-16.8c0-2.6,0.7-4.5,2-5.9c1.3-1.4,3.2-2.1,5.7-2.1s4.3,0.7,5.7,2.1
					c1.3,1.4,2,3.4,2,5.9v16.8c0,2.6-0.7,4.5-2,5.9c-1.3,1.4-3.2,2.1-5.7,2.1S68,128.5,66.7,127.1z M74.9,121.5v-17.4
					c0-2.1-0.9-3.1-2.6-3.1c-1.7,0-2.6,1-2.6,3.1v17.4c0,2.1,0.9,3.1,2.6,3.1C74.1,124.7,74.9,123.6,74.9,121.5z"/>
			</g>
			<g>
				<path class="st3" d="M83.3,96.9h7.4c2.6,0,4.5,0.6,5.7,1.8s1.8,3,1.8,5.5v2c0,3.3-1.1,5.4-3.3,6.3v0.1c1.2,0.4,2.1,1.1,2.6,2.2
					c0.5,1.1,0.8,2.6,0.8,4.5v5.6c0,0.9,0,1.6,0.1,2.2c0.1,0.6,0.2,1.1,0.5,1.7h-5.1c-0.2-0.5-0.3-1-0.4-1.5
					c-0.1-0.5-0.1-1.3-0.1-2.5V119c0-1.5-0.2-2.5-0.7-3.1c-0.5-0.6-1.3-0.9-2.4-0.9h-1.7v13.7h-5V96.9z M90.2,110.5
					c1,0,1.8-0.3,2.3-0.8c0.5-0.5,0.8-1.4,0.8-2.6v-2.5c0-1.2-0.2-2-0.6-2.5c-0.4-0.5-1.1-0.8-1.9-0.8h-2.3v9.1H90.2z"/>
			</g>
			<g>
				<path class="st3" d="M101.7,96.9h5v31.9h-5V96.9z"/>
			</g>
			<g>
				<path class="st3" d="M112,127.2c-1.3-1.4-1.9-3.4-1.9-6v-16.8c0-2.6,0.6-4.6,1.9-6c1.3-1.4,3.1-2.1,5.6-2.1
					c2.4,0,4.3,0.7,5.6,2.1c1.3,1.4,1.9,3.4,1.9,6v2.7h-4.7v-3.1c0-2.1-0.9-3.1-2.6-3.1s-2.6,1-2.6,3.1v17.5c0,2.1,0.9,3.1,2.6,3.1
					s2.6-1,2.6-3.1v-6.2h-2.5v-4.6h7.2v10.4c0,2.6-0.6,4.6-1.9,6c-1.3,1.4-3.1,2.1-5.6,2.1C115.1,129.2,113.3,128.5,112,127.2z"/>
			</g>
			<g>
				<path class="st3" d="M128.3,96.9h5v31.9h-5V96.9z"/>
			</g>
			<g>
				<path class="st3" d="M137,96.9h6.3l4.9,19.1h0.1V96.9h4.5v31.9h-5.2l-6-23.3h-0.1v23.3H137V96.9z"/>
			</g>
			<g>
				<path class="st3" d="M160.4,96.9h6.8l5.2,31.9h-5l-0.9-6.3v0.1h-5.7l-0.9,6.2h-4.7L160.4,96.9z M165.8,118.2l-2.2-15.8h-0.1
					l-2.2,15.8H165.8z"/>
			</g>
			<g>
				<path class="st3" d="M174.8,96.9h5v27.4h8.3v4.6h-13.3V96.9z"/>
			</g>
			<g>
				<path class="st3" d="M28.8,165.7c-1.2-1.4-1.9-3.4-1.9-6v-1.8h4.7v2.2c0,2.1,0.9,3.1,2.6,3.1c0.9,0,1.5-0.3,1.9-0.8
					c0.4-0.5,0.7-1.3,0.7-2.4c0-1.3-0.3-2.5-0.9-3.5c-0.6-1-1.7-2.2-3.4-3.7c-2.1-1.8-3.5-3.5-4.3-4.9c-0.8-1.5-1.2-3.1-1.2-5
					c0-2.5,0.6-4.5,1.9-5.9c1.3-1.4,3.1-2.1,5.6-2.1c2.4,0,4.2,0.7,5.4,2.1c1.2,1.4,1.8,3.4,1.8,6v1.3H37v-1.6
					c0-1.1-0.2-1.9-0.6-2.4c-0.4-0.5-1-0.8-1.9-0.8c-1.7,0-2.5,1-2.5,3.1c0,1.2,0.3,2.2,0.9,3.2c0.6,1,1.8,2.2,3.4,3.6
					c2.1,1.8,3.5,3.5,4.3,5c0.8,1.5,1.2,3.2,1.2,5.2c0,2.6-0.6,4.6-1.9,6c-1.3,1.4-3.2,2.1-5.6,2.1C31.9,167.8,30,167.1,28.8,165.7z
					"/>
			</g>
			<g>
				<path class="st3" d="M44.8,135.4h7.4c2.5,0,4.4,0.7,5.6,2c1.2,1.3,1.9,3.3,1.9,5.9v3.1c0,2.6-0.6,4.5-1.9,5.9
					c-1.2,1.3-3.1,2-5.6,2h-2.4v13h-5V135.4z M52.1,149.7c0.8,0,1.4-0.2,1.8-0.7c0.4-0.5,0.6-1.2,0.6-2.3V143c0-1.1-0.2-1.9-0.6-2.3
					c-0.4-0.5-1-0.7-1.8-0.7h-2.4v9.8H52.1z"/>
			</g>
			<g>
				<path class="st3" d="M63.9,165.7c-1.3-1.4-2-3.4-2-5.9V143c0-2.6,0.7-4.5,2-5.9c1.3-1.4,3.2-2.1,5.7-2.1s4.3,0.7,5.7,2.1
					c1.3,1.4,2,3.4,2,5.9v16.8c0,2.6-0.7,4.5-2,5.9c-1.3,1.4-3.2,2.1-5.7,2.1S65.3,167.1,63.9,165.7z M72.2,160v-17.4
					c0-2.1-0.9-3.1-2.6-3.1s-2.6,1-2.6,3.1V160c0,2.1,0.9,3.1,2.6,3.1S72.2,162.1,72.2,160z"/>
			</g>
			<g>
				<path class="st3" d="M80.6,135.4H88c2.6,0,4.5,0.6,5.7,1.8c1.2,1.2,1.8,3,1.8,5.5v2c0,3.3-1.1,5.4-3.3,6.3v0.1
					c1.2,0.4,2.1,1.1,2.6,2.2c0.5,1.1,0.8,2.6,0.8,4.5v5.6c0,0.9,0,1.6,0.1,2.2c0.1,0.6,0.2,1.1,0.5,1.7h-5.1
					c-0.2-0.5-0.3-1-0.4-1.5s-0.1-1.3-0.1-2.5v-5.8c0-1.5-0.2-2.5-0.7-3.1c-0.5-0.6-1.3-0.9-2.4-0.9h-1.7v13.7h-5V135.4z
					 M87.4,149.1c1,0,1.8-0.3,2.3-0.8c0.5-0.5,0.8-1.4,0.8-2.6v-2.5c0-1.2-0.2-2-0.6-2.5c-0.4-0.5-1.1-0.8-1.9-0.8h-2.3v9.1H87.4z"
					/>
			</g>
			<g>
				<path class="st3" d="M102.8,139.9h-5.2v-4.6h15.5v4.6h-5.2v27.4h-5V139.9z"/>
			</g>
			<g>
				<path class="st3" d="M116.5,165.7c-1.2-1.4-1.9-3.4-1.9-6v-1.8h4.7v2.2c0,2.1,0.9,3.1,2.6,3.1c0.9,0,1.5-0.3,1.9-0.8
					c0.4-0.5,0.7-1.3,0.7-2.4c0-1.3-0.3-2.5-0.9-3.5c-0.6-1-1.7-2.2-3.4-3.7c-2.1-1.8-3.5-3.5-4.3-4.9c-0.8-1.5-1.2-3.1-1.2-5
					c0-2.5,0.6-4.5,1.9-5.9c1.3-1.4,3.1-2.1,5.6-2.1c2.4,0,4.2,0.7,5.4,2.1c1.2,1.4,1.8,3.4,1.8,6v1.3h-4.7v-1.6
					c0-1.1-0.2-1.9-0.6-2.4c-0.4-0.5-1-0.8-1.9-0.8c-1.7,0-2.5,1-2.5,3.1c0,1.2,0.3,2.2,0.9,3.2c0.6,1,1.8,2.2,3.4,3.6
					c2.1,1.8,3.5,3.5,4.3,5c0.8,1.5,1.2,3.2,1.2,5.2c0,2.6-0.6,4.6-1.9,6c-1.3,1.4-3.2,2.1-5.6,2.1
					C119.6,167.8,117.7,167.1,116.5,165.7z"/>
			</g>
		</g>
	</g>
	<g>
		<path class="st3" d="M36.1,197.1c0,2.7-1.9,4.4-4.3,4.4c-1.5,0-2.9-0.7-3.6-2v4.7h-0.8V193h0.8v1.8c0.7-1.3,2.1-2,3.6-2
			C34.1,192.7,36.1,194.5,36.1,197.1z M35.3,197.1c0-2.2-1.6-3.6-3.5-3.6c-1.8,0-3.5,1.4-3.5,3.6c0,2.3,1.7,3.6,3.5,3.6
			C33.7,200.8,35.3,199.4,35.3,197.1z"/>
		<path class="st3" d="M43.6,192.9l-0.1,0.8c-0.2,0-0.3,0-0.5,0c-2.3,0-3.6,1.9-3.6,4.2v3.5h-0.8V193h0.8v2.4
			c0.7-1.4,1.9-2.4,3.6-2.4C43.2,192.9,43.4,192.9,43.6,192.9z"/>
		<path class="st3" d="M52.9,196.9v0.3h-7.6c0,2.3,1.8,3.6,3.5,3.6c1.3,0,2.4-0.5,3.1-1.5l0.7,0.3c-0.8,1.3-2.1,1.9-3.7,1.9
			c-2.2,0-4.3-1.7-4.3-4.4c0-2.7,2.1-4.4,4.4-4.4C51.1,192.7,52.8,194.4,52.9,196.9L52.9,196.9z M45.3,196.6H52
			c-0.2-1.9-1.5-3.1-3.2-3.1C47.2,193.5,45.5,194.6,45.3,196.6z"/>
		<path class="st3" d="M58.3,200.8c1.4,0,2.4-0.6,2.4-1.7c0-0.9-0.7-1.3-1.6-1.5l-2-0.4c-1.3-0.3-2.1-0.9-2.1-2
			c0-1.4,1.3-2.4,3.1-2.4c1.6,0,2.7,0.8,3.2,1.8l-0.8,0.2c-0.3-0.8-1.2-1.4-2.4-1.4c-1.3,0-2.2,0.7-2.2,1.7c0,0.9,0.6,1.2,1.5,1.4
			l1.9,0.4c1.1,0.3,2.2,0.8,2.2,2.1c0,1.6-1.3,2.5-3.3,2.5c-1.8,0-3.1-0.7-3.5-2l0.8-0.3C55.8,200.2,56.9,200.8,58.3,200.8z"/>
		<path class="st3" d="M71.7,196.9v0.3h-7.6c0,2.3,1.8,3.6,3.5,3.6c1.3,0,2.4-0.5,3.1-1.5l0.7,0.3c-0.8,1.3-2.1,1.9-3.7,1.9
			c-2.2,0-4.3-1.7-4.3-4.4c0-2.7,2.1-4.4,4.4-4.4C69.9,192.7,71.6,194.4,71.7,196.9L71.7,196.9z M64.1,196.6h6.7
			c-0.2-1.9-1.5-3.1-3.2-3.1C66,193.5,64.3,194.6,64.1,196.6z"/>
		<path class="st3" d="M81.9,196.4v5H81v-4.9c0-1.8-1.1-2.9-2.6-2.9c-2,0-3.4,1.4-3.4,3.6v4.2h-0.8V193H75v1.8c0.7-1.3,1.9-2,3.5-2
			C80.5,192.7,81.9,194.2,81.9,196.4z"/>
		<path class="st3" d="M89.5,200.9c-0.6,0.5-1.2,0.7-1.8,0.7c-1.5,0-2.5-0.9-2.5-2.6v-5.3h-1.8V193h1.8v-2.8H86v2.8h3.1v0.7H86v5.3
			c0,1.1,0.7,1.8,1.7,1.8c0.5,0,1-0.2,1.5-0.6L89.5,200.9z"/>
		<path class="st3" d="M94.4,200.8c1.4,0,2.4-0.6,2.4-1.7c0-0.9-0.7-1.3-1.6-1.5l-2-0.4c-1.3-0.3-2.1-0.9-2.1-2
			c0-1.4,1.3-2.4,3.1-2.4c1.6,0,2.7,0.8,3.2,1.8l-0.8,0.2c-0.3-0.8-1.2-1.4-2.4-1.4c-1.3,0-2.2,0.7-2.2,1.7c0,0.9,0.6,1.2,1.5,1.4
			l1.9,0.4c1.1,0.3,2.2,0.8,2.2,2.1c0,1.6-1.3,2.5-3.3,2.5c-1.8,0-3.1-0.7-3.5-2l0.8-0.3C91.8,200.2,92.9,200.8,94.4,200.8z"/>
	</g>
</g>
</svg>
