<svg version="1.1" id="Layer_1" xmlns="http://www.w3.org/2000/svg" x="0" y="0" viewBox="0 0 370 32" style="enable-background:new 0 0 370 32" xml:space="preserve"><style>.st0{fill:#08283f}</style><path class="st0" d="M4.18 28.92c-1.08-1.19-1.62-2.91-1.62-5.14V22.2h4.1v1.89c0 1.79.75 2.68 2.25 2.68.74 0 1.29-.22 1.67-.65.38-.43.57-1.14.57-2.11 0-1.16-.26-2.17-.79-3.05-.53-.88-1.5-1.94-2.92-3.17-1.79-1.58-3.03-3-3.74-4.27-.7-1.28-1.06-2.71-1.06-4.32 0-2.18.55-3.87 1.65-5.06C5.4 2.94 7 2.35 9.11 2.35c2.07 0 3.64.6 4.71 1.79 1.06 1.2 1.6 2.91 1.6 5.14v1.14h-4.1V9.01c0-.95-.18-1.64-.55-2.07-.38-.44-.92-.65-1.63-.65-1.44 0-2.17.88-2.17 2.64 0 1 .27 1.93.81 2.8.54.87 1.52 1.92 2.94 3.15 1.81 1.58 3.06 3.01 3.74 4.29.68 1.29 1.02 2.8 1.02 4.53 0 2.26-.56 3.99-1.67 5.2-1.12 1.21-2.74 1.81-4.87 1.81-2.09.01-3.68-.59-4.76-1.79zM19.35 28.9c-1.13-1.21-1.69-2.92-1.69-5.12V9.28c0-2.21.56-3.91 1.69-5.12s2.76-1.81 4.89-1.81 3.76.6 4.89 1.81 1.69 2.92 1.69 5.12v14.5c0 2.21-.57 3.91-1.69 5.12-1.13 1.21-2.76 1.81-4.89 1.81s-3.76-.6-4.89-1.81zm7.13-4.84V9.01c0-1.81-.75-2.72-2.25-2.72s-2.25.91-2.25 2.72v15.05c0 1.81.75 2.72 2.25 2.72s2.25-.91 2.25-2.72zM35.23 28.92c-1.1-1.19-1.65-2.91-1.65-5.14V2.74h4.33V24.1c0 .95.19 1.63.57 2.05.38.42.93.63 1.64.63.71 0 1.25-.21 1.64-.63.38-.42.57-1.1.57-2.05V2.74h4.18v21.04c0 2.23-.55 3.95-1.65 5.14-1.1 1.2-2.71 1.79-4.81 1.79-2.12.01-3.72-.59-4.82-1.79zM52.96 6.68h-4.53V2.74h13.4v3.94H57.3v23.64h-4.33V6.68zM63.91 2.74h4.33v11.23h4.65V2.74h4.33v27.58H72.9V17.91h-4.65v12.41h-4.33V2.74zM80.46 2.74h11.82v3.94H84.8v7.29h5.95v3.94H84.8v8.47h7.49v3.94H80.46V2.74zM94.76 2.74h6.42c2.23 0 3.86.52 4.89 1.56s1.54 2.63 1.54 4.79v1.69c0 2.86-.95 4.68-2.84 5.44v.08c1.05.32 1.79.96 2.23 1.93.43.97.65 2.27.65 3.9v4.85c0 .79.03 1.42.08 1.91s.18.97.39 1.44h-4.41c-.16-.45-.26-.87-.32-1.26-.05-.39-.08-1.1-.08-2.13V21.9c0-1.26-.2-2.14-.61-2.64s-1.11-.75-2.11-.75h-1.5v11.82h-4.33V2.74zm5.91 11.82c.87 0 1.52-.22 1.95-.67.43-.45.65-1.2.65-2.25V9.52c0-1-.18-1.72-.53-2.17-.35-.45-.91-.67-1.67-.67H99.1v7.88h1.57zM110.64 2.74h5.44l4.22 16.51h.08V2.74h3.86v27.58h-4.45l-5.2-20.13h-.08v20.13h-3.86V2.74zM137.37 2.74h5.87l4.49 27.58h-4.33l-.79-5.48v.08h-4.93l-.79 5.4h-4.02l4.5-27.58zm4.73 18.44-1.93-13.63h-.08l-1.89 13.63h3.9zM149.82 2.74h6.54c2.23 0 3.86.52 4.89 1.56 1.02 1.04 1.54 2.63 1.54 4.79v1.1c0 1.42-.23 2.57-.69 3.47-.46.89-1.16 1.54-2.11 1.93v.08c2.15.74 3.23 2.65 3.23 5.75v2.36c0 2.13-.56 3.75-1.67 4.87-1.12 1.12-2.75 1.67-4.91 1.67h-6.82V2.74zm6.03 11.23c.87 0 1.52-.22 1.95-.67.43-.45.65-1.19.65-2.25V9.52c0-1-.18-1.72-.53-2.17-.35-.45-.91-.67-1.67-.67h-2.09v7.29h1.69zm.79 12.41c.76 0 1.33-.2 1.69-.61.37-.41.55-1.11.55-2.11v-2.4c0-1.26-.22-2.13-.65-2.62-.43-.49-1.15-.73-2.15-.73h-1.93v8.47h2.49zM167.12 28.9c-1.13-1.21-1.69-2.92-1.69-5.12V9.28c0-2.21.56-3.91 1.69-5.12s2.76-1.81 4.89-1.81 3.76.6 4.89 1.81 1.69 2.92 1.69 5.12v14.5c0 2.21-.57 3.91-1.69 5.12-1.13 1.21-2.76 1.81-4.89 1.81-2.13.01-3.76-.6-4.89-1.81zm7.13-4.84V9.01c0-1.81-.75-2.72-2.25-2.72s-2.25.91-2.25 2.72v15.05c0 1.81.75 2.72 2.25 2.72s2.25-.91 2.25-2.72zM181.5 2.74h6.42c2.23 0 3.86.52 4.89 1.56 1.02 1.04 1.54 2.63 1.54 4.79v1.69c0 2.86-.95 4.68-2.84 5.44v.08c1.05.32 1.79.96 2.23 1.93.43.97.65 2.27.65 3.9v4.85c0 .79.03 1.42.08 1.91s.18.97.39 1.44h-4.41c-.16-.45-.26-.87-.32-1.26-.05-.39-.08-1.1-.08-2.13V21.9c0-1.26-.2-2.14-.61-2.64s-1.11-.75-2.11-.75h-1.5v11.82h-4.33V2.74zm5.91 11.82c.87 0 1.52-.22 1.95-.67.43-.45.65-1.2.65-2.25V9.52c0-1-.18-1.72-.53-2.17-.35-.45-.91-.67-1.67-.67h-1.97v7.88h1.57zM197.38 2.74h4.33v27.58h-4.33V2.74zM206.28 28.92c-1.1-1.19-1.65-2.91-1.65-5.14V9.28c0-2.23.55-3.95 1.65-5.14 1.1-1.19 2.71-1.79 4.81-1.79 2.1 0 3.7.6 4.81 1.79 1.1 1.2 1.65 2.91 1.65 5.14v2.36h-4.1V9.01c0-1.81-.75-2.72-2.25-2.72s-2.25.91-2.25 2.72V24.1c0 1.79.75 2.68 2.25 2.68s2.25-.89 2.25-2.68v-5.4h-2.17v-3.94h6.26v9.02c0 2.23-.55 3.95-1.65 5.14-1.1 1.2-2.71 1.79-4.81 1.79-2.09.01-3.69-.59-4.8-1.79zM220.35 2.74h4.33v27.58h-4.33V2.74zM227.91 2.74h5.44l4.22 16.51h.08V2.74h3.86v27.58h-4.45l-5.2-20.13h-.08v20.13h-3.86V2.74zM248.09 2.74h5.87l4.49 27.58h-4.33l-.79-5.48v.08h-4.93l-.79 5.4h-4.02l4.5-27.58zm4.72 18.44-1.93-13.63h-.08l-1.89 13.63h3.9zM260.54 2.74h4.33v23.64H272v3.94h-11.47V2.74zM281.26 28.92c-1.08-1.19-1.62-2.91-1.62-5.14V22.2h4.1v1.89c0 1.79.75 2.68 2.25 2.68.74 0 1.29-.22 1.67-.65.38-.43.57-1.14.57-2.11 0-1.16-.26-2.17-.79-3.05-.53-.88-1.5-1.94-2.92-3.17-1.79-1.58-3.03-3-3.74-4.27-.71-1.27-1.06-2.71-1.06-4.31 0-2.18.55-3.87 1.65-5.06 1.1-1.19 2.71-1.79 4.81-1.79 2.07 0 3.64.6 4.71 1.79 1.06 1.2 1.6 2.91 1.6 5.14v1.14h-4.1V9.01c0-.95-.18-1.64-.55-2.07-.37-.43-.91-.65-1.62-.65-1.44 0-2.17.88-2.17 2.64 0 1 .27 1.93.81 2.8.54.87 1.52 1.92 2.94 3.15 1.81 1.58 3.06 3.01 3.74 4.29.68 1.29 1.02 2.8 1.02 4.53 0 2.26-.56 3.99-1.67 5.2-1.12 1.21-2.74 1.81-4.87 1.81-2.09.01-3.68-.59-4.76-1.79zM295.05 2.74h6.38c2.15 0 3.77.58 4.85 1.73 1.08 1.16 1.62 2.85 1.62 5.08v2.72c0 2.23-.54 3.93-1.62 5.08-1.08 1.16-2.69 1.73-4.85 1.73h-2.05v11.23h-4.33V2.74zm6.38 12.41c.71 0 1.24-.2 1.6-.59s.53-1.06.53-2.01V9.28c0-.95-.18-1.62-.53-2.01-.35-.39-.89-.59-1.6-.59h-2.05v8.47h2.05zM311.64 28.9c-1.13-1.21-1.69-2.92-1.69-5.12V9.28c0-2.21.56-3.91 1.69-5.12s2.76-1.81 4.89-1.81 3.76.6 4.89 1.81 1.69 2.92 1.69 5.12v14.5c0 2.21-.56 3.91-1.69 5.12s-2.76 1.81-4.89 1.81-3.76-.6-4.89-1.81zm7.13-4.84V9.01c0-1.81-.75-2.72-2.25-2.72s-2.25.91-2.25 2.72v15.05c0 1.81.75 2.72 2.25 2.72s2.25-.91 2.25-2.72zM326.02 2.74h6.42c2.23 0 3.86.52 4.89 1.56 1.02 1.04 1.54 2.63 1.54 4.79v1.69c0 2.86-.95 4.68-2.84 5.44v.08c1.05.32 1.79.96 2.23 1.93.43.97.65 2.27.65 3.9v4.85c0 .79.03 1.42.08 1.91s.18.97.39 1.44h-4.41c-.16-.45-.26-.87-.32-1.26-.05-.39-.08-1.1-.08-2.13V21.9c0-1.26-.2-2.14-.61-2.64s-1.11-.75-2.11-.75h-1.5v11.82h-4.33V2.74zm5.91 11.82c.87 0 1.52-.22 1.95-.67.43-.45.65-1.2.65-2.25V9.52c0-1-.18-1.72-.53-2.17-.35-.45-.91-.67-1.68-.67h-1.97v7.88h1.58zM345.21 6.68h-4.53V2.74h13.4v3.94h-4.53v23.64h-4.33V6.68zM357.03 28.92c-1.08-1.19-1.62-2.91-1.62-5.14V22.2h4.1v1.89c0 1.79.75 2.68 2.25 2.68.73 0 1.29-.22 1.67-.65.38-.43.57-1.14.57-2.11 0-1.16-.26-2.17-.79-3.05-.53-.88-1.5-1.94-2.92-3.17-1.79-1.58-3.03-3-3.74-4.27-.71-1.27-1.06-2.71-1.06-4.31 0-2.18.55-3.87 1.65-5.06 1.1-1.19 2.71-1.79 4.81-1.79 2.07 0 3.64.6 4.71 1.79 1.06 1.2 1.6 2.91 1.6 5.14v1.14h-4.1V9.01c0-.95-.18-1.64-.55-2.07-.37-.43-.91-.65-1.62-.65-1.44 0-2.17.88-2.17 2.64 0 1 .27 1.93.81 2.8.54.87 1.52 1.92 2.94 3.15 1.81 1.58 3.06 3.01 3.74 4.29.68 1.29 1.02 2.8 1.02 4.53 0 2.26-.56 3.99-1.67 5.2-1.12 1.21-2.74 1.81-4.87 1.81-2.09.01-3.68-.59-4.76-1.79z"/></svg>